<svg width="168" height="168" viewBox="0 0 168 168" fill="none" xmlns="http://www.w3.org/2000/svg">
<path d="M106.8 52.6001C83.5999 25.4001 82.5999 13.6001 82.5999 13.6001C82.5999 13.6001 81.9999 29.7001 58.3999 54.2001C58.3999 54.2001 17.6999 98.6001 63.4999 132.4C63.4999 132.4 70.5999 137.2 78.9999 139.5C78.9999 139.5 78.9999 139.5 78.9999 139.4C78.9999 139.4 55.5999 131.8 58.1999 103.1C58.1999 103.1 60.6999 73.6001 92.4999 62.7001C92.4999 62.7001 87.9999 69.5001 95.1999 84.0001C95.1999 84.0001 112.8 109.7 89.7999 133.8C89.7999 133.8 88.8999 133 87.5999 131.4C86.7999 130.4 86.0999 129.5 85.4999 128.5C82.1999 123.5 78.0999 114.9 77.5999 102.7C77.5999 102.7 72.1999 118.4 85.9999 135.5C92.5999 144.6 100.2 150.4 100.2 150.4C105 151.3 109.1 149.3 109.1 149.3C102.5 145.5 97.1999 141.5 93.0999 137.4C100.7 134.3 105.4 130.9 105.4 130.9C147.7 98.2001 107 52.7001 107 52.7001L106.8 52.6001Z" fill="#231F20"/>
</svg>
