<svg width="168" height="168" viewBox="0 0 168 168" fill="none" xmlns="http://www.w3.org/2000/svg">
<path fill-rule="evenodd" clip-rule="evenodd" d="M141.8 48.4001C133.9 56.8001 125.4 65.3001 116.9 73.8001C116.3 74.4001 113.5 77.4001 113.3 77.4001C112.7 77.4001 110.3 74.4001 109.2 73.3001C101.1 65.2001 92.9 57.3001 84.8 49.1001C83.6 47.9001 81.6 46.9001 81.5 45.0001C82 44.8001 82.3 44.4001 82.5 44.0001C84.1 44.1001 85.3 45.8001 86.4 46.8001C94.5 54.9001 103.1 63.9001 111.6 72.0001C103.5 62.3001 93.5 52.2001 84.9 42.2001C88.4 37.7001 93 34.2001 97 30.1001C112 36.2001 126.8 42.4001 142 48.3001L141.8 48.4001Z"/>
<path fill-rule="evenodd" clip-rule="evenodd" d="M141.8 51.2002C141.8 53.0002 142.6 54.9002 142.1 57.1002C141.4 59.9002 136 63.7002 133.4 66.4002C112.8 87.0002 91.2998 109 70.8998 128.3C71.2998 126.8 70.3998 124.2 70.8998 122.4C71.5998 120 76.9998 116 79.5998 113.4C88.2998 104.7 97.3998 95.4002 105.8 86.9002C118.3 74.4002 130.2 62.6002 141.8 51.2002Z"/>
<path fill-rule="evenodd" clip-rule="evenodd" d="M105.3 84.8998C103 88.1998 99.6 90.4998 97.1 93.5998C86.1 83.1998 75.4 72.4998 65 61.4998C67.8 58.8998 70.6 56.0998 73.2 53.2998C84.2 63.5998 94.6 74.3998 105.3 84.8998Z"/>
<path fill-rule="evenodd" clip-rule="evenodd" d="M52.6001 82.1C61.4001 91.8 70.1001 101.6 79.1001 111.1C76.3001 114.4 73.1001 117.3 69.8001 120.1C55.0001 113.9 40.1001 107.8 25.1001 101.9C25.6001 100.5 27.1001 99.6 28.2001 98.6C35.9001 90.9 44.1001 82.2 52.4001 74.7C62.8001 85.3 73.4001 95.9 84.0001 106.3C83.1001 107.8 81.9001 109 80.4001 109.9C71.3001 100.5 62.0001 91.3 52.6001 82.1Z"/>
<path fill-rule="evenodd" clip-rule="evenodd" d="M24.7998 104.2C39.7998 110 54.4998 116.2 69.2998 122.2C68.6998 123.9 69.1998 126.7 68.9998 128.9C54.2998 122.9 39.4998 117 24.7998 110.9V104.2Z"/>
</svg>
