<svg width="168" height="168" viewBox="0 0 168 168" fill="none" xmlns="http://www.w3.org/2000/svg">
<path fill-rule="evenodd" clip-rule="evenodd" d="M49.9998 34.3C48.7998 35.2 46.2998 36.5 46.2998 38C46.2998 39.6 48.7998 41.3 49.9998 42.5C51.5998 44.1 52.6998 45.4 54.0998 46.6C52.6998 48.4 50.9998 50.9 50.5998 53.1C51.8998 52.1 52.8998 51.3 54.2998 50C55.2998 49.1 57.5998 47.6 57.5998 46.3C57.5998 45 55.0998 42.8 54.0998 41.8C52.5998 40.3 51.2998 39.1 49.9998 37.9C51.7998 36 53.0998 33.7 54.6998 31.6C54.6998 31.4 54.6998 31.1 54.2998 31.2C52.8998 32.2 51.5998 33.1 49.9998 34.3ZM64.0998 34.3C62.8998 35.2 60.3998 36.5 60.3998 38C60.3998 39.6 62.8998 41.3 64.0998 42.5C65.6998 44.1 66.7998 45.4 68.1998 46.6C66.7998 48.4 65.0998 50.9 64.6998 53.1C65.9998 52.1 66.9998 51.3 68.3998 50C69.3998 49.1 71.6998 47.6 71.6998 46.3C71.6998 45 69.1998 42.8 68.1998 41.8C66.6998 40.3 65.3998 39.1 64.0998 37.9C65.8998 36 67.1998 33.7 68.7998 31.6C68.7998 31.4 68.7998 31.1 68.3998 31.2C66.9998 32.2 65.6998 33.1 64.0998 34.3ZM78.1998 34.3C76.9998 35.2 74.4998 36.5 74.4998 38C74.4998 39.6 76.9998 41.3 78.1998 42.5C79.7998 44.1 80.8998 45.4 82.2998 46.6C80.8998 48.4 79.1998 50.9 78.7998 53.1C80.0998 52.1 81.0998 51.3 82.4998 50C83.4998 49.1 85.7998 47.6 85.7998 46.3C85.7998 45 83.2998 42.8 82.2998 41.8C80.7998 40.3 79.4998 39.1 78.1998 37.9C79.9998 36 81.2998 33.7 82.8998 31.6C82.8998 31.4 82.8998 31.1 82.4998 31.2C81.0998 32.2 79.7998 33.1 78.1998 34.3ZM92.2998 34.3C91.0998 35.2 88.5998 36.5 88.5998 38C88.5998 39.6 91.0998 41.3 92.2998 42.5C93.8998 44.1 94.9998 45.4 96.3998 46.6C94.9998 48.4 93.2998 50.9 92.8998 53.1C94.1998 52.1 95.1998 51.3 96.5998 50C97.5998 49.1 99.8998 47.6 99.8998 46.3C99.8998 45 97.3998 42.8 96.3998 41.8C94.8998 40.3 93.5998 39.1 92.2998 37.9C94.0998 36 95.3998 33.7 96.9998 31.6C96.9998 31.4 96.9998 31.1 96.5998 31.2C95.1998 32.2 93.8998 33.1 92.2998 34.3ZM106.4 34.3C105.2 35.2 102.7 36.5 102.7 38C102.7 39.6 105.2 41.3 106.4 42.5C108 44.1 109.1 45.4 110.5 46.6C109.1 48.4 107.4 50.9 107 53.1C108.3 52.1 109.3 51.3 110.7 50C111.7 49.1 114 47.6 114 46.3C114 45 111.5 42.8 110.5 41.8C109 40.3 107.7 39.1 106.4 37.9C108.2 36 109.5 33.7 111.1 31.6C111.1 31.4 111.1 31.1 110.7 31.2C109.3 32.2 108 33.1 106.4 34.3ZM125.8 59.1C122.4 59.3 120.3 58.7 118 59.5C111 61.8 112.5 71.2 112.5 81V121.3C112.5 125.6 112.8 130.4 108.8 128.3C107 127.4 107.8 118.4 107.8 114.4V84.5C107.8 78.9 108.3 73.5 107.8 69.4C107.2 64.7 103.4 60.7 99.3998 59.4C91.4998 56.9 84.9998 63.8 84.2998 69.4C83.6998 73.8 84.2998 79.1 84.2998 84.3V114.4C84.2998 117.6 85.1998 127.4 83.0998 128.3C79.1998 129.9 79.5998 126 79.5998 122V84.4C79.5998 79.1 80.0998 73.5 79.5998 69.3C78.9998 64.8 74.7998 59.7 69.5998 58.9C64.5998 58.2 60.4998 61 58.5998 63.4C55.0998 67.8 56.0998 76 56.0998 84.5V115C56.0998 119.4 56.9998 128.4 54.8998 129.3C50.6998 131.1 51.3998 126.3 51.3998 122.1V80.6C51.3998 75.1 52.2998 68.4 50.9998 64.4C49.3998 59.5 45.2998 58.9 38.2998 58.9C31.2998 58.9 32.1998 58.5 30.4998 59.3C27.0998 60.9 27.3998 66.4 30.4998 67.9C33.1998 69.2 37.7998 67.6 41.9998 68.5V115.1C41.9998 120 41.0998 126 42.1998 130.6C43.7998 137.6 53.0998 141.5 60.1998 137.4C61.9998 136.4 64.5998 133.5 65.2998 130.6C66.2998 126.4 65.4998 120.4 65.4998 114.7V82.2C65.4998 78.6 64.2998 68.3 67.7998 68.3C71.2998 68.3 70.0998 76.6 70.0998 81.8V113.5C70.0998 118.9 69.2998 125.3 70.2998 129.3C72.9998 140.6 90.7998 140.2 93.3998 129.3C94.3998 125.2 93.5998 118.9 93.5998 113.6V81.9C93.5998 76.9 92.4998 68.2 95.8998 68.2C99.2998 68.2 98.1998 77.1 98.1998 81.3V112.6C98.1998 118 97.5998 123.6 98.1998 128.3C98.6998 131.6 101.2 134.8 103.5 136.1C110.5 140.2 119.9 136.1 121.5 129.3C122.5 124.9 121.7 119.2 121.7 114.2V68.2H125.8C125.9 69.8 125.5 72 126 73.3C131.4 69.8 137.5 67 142.6 63.3C136.9 60.2 131.5 56.8 125.8 53.7C125.7 55.3 126.1 57.5 125.6 58.8L125.8 59.1Z" fill="white"/>
<path fill-rule="evenodd" clip-rule="evenodd" d="M54.2998 31.2C54.5998 31.2 54.6998 31.4 54.6998 31.6C53.0998 33.7 51.7998 36 49.9998 37.9C51.2998 39.1 52.5998 40.2999 54.0998 41.7999C55.0998 42.7999 57.6998 44.9999 57.5998 46.2999C57.5998 47.5999 55.2998 49.1 54.2998 50C52.8998 51.3 51.7998 52.0999 50.5998 53.0999C50.9998 50.9999 52.6998 48.4999 54.0998 46.5999C52.6998 45.3999 51.5998 44.1 49.9998 42.5C48.7998 41.3 46.2998 39.6 46.2998 38C46.2998 36.5 48.7998 35.1999 49.9998 34.2999C51.5998 33.0999 52.8998 32.2 54.2998 31.2Z"  />
<path fill-rule="evenodd" clip-rule="evenodd" d="M68.3999 31.2C68.6999 31.2 68.7999 31.4 68.7999 31.6C67.1999 33.7 65.8999 36 64.0999 37.9C65.3999 39.1 66.6999 40.2999 68.1999 41.7999C69.1999 42.7999 71.7999 44.9999 71.6999 46.2999C71.6999 47.5999 69.3999 49.1 68.3999 50C66.9999 51.3 65.8999 52.0999 64.6999 53.0999C65.0999 50.9999 66.7999 48.4999 68.1999 46.5999C66.7999 45.3999 65.6999 44.1 64.0999 42.5C62.8999 41.3 60.3999 39.6 60.3999 38C60.3999 36.5 62.8999 35.1999 64.0999 34.2999C65.6999 33.0999 66.9999 32.2 68.3999 31.2Z"  />
<path fill-rule="evenodd" clip-rule="evenodd" d="M82.5 31.2C82.8 31.2 82.9 31.4 82.9 31.6C81.3 33.7 80 36 78.2 37.9C79.5 39.1 80.8 40.2999 82.3 41.7999C83.3 42.7999 85.9 44.9999 85.8 46.2999C85.8 47.5999 83.5 49.1 82.5 50C81.1 51.3 80 52.0999 78.8 53.0999C79.2 50.9999 80.9 48.4999 82.3 46.5999C80.9 45.3999 79.8 44.1 78.2 42.5C77 41.3 74.5 39.6 74.5 38C74.5 36.5 77 35.1999 78.2 34.2999C79.8 33.0999 81.1 32.2 82.5 31.2Z"  />
<path fill-rule="evenodd" clip-rule="evenodd" d="M96.6001 31.2C96.9001 31.2 97.0001 31.4 97.0001 31.6C95.4001 33.7 94.1001 36 92.3001 37.9C93.6001 39.1 94.9001 40.2999 96.4001 41.7999C97.4001 42.7999 100 44.9999 99.9001 46.2999C99.9001 47.5999 97.6001 49.1 96.6001 50C95.2001 51.3 94.1001 52.0999 92.9001 53.0999C93.3001 50.9999 95.0001 48.4999 96.4001 46.5999C95.0001 45.3999 93.9001 44.1 92.3001 42.5C91.1001 41.3 88.6001 39.6 88.6001 38C88.6001 36.5 91.1001 35.1999 92.3001 34.2999C93.9001 33.0999 95.2001 32.2 96.6001 31.2Z"  />
<path fill-rule="evenodd" clip-rule="evenodd" d="M110.7 31.2C111 31.2 111.1 31.4 111.1 31.6C109.5 33.7 108.2 36 106.4 37.9C107.7 39.1 109 40.2999 110.5 41.7999C111.5 42.7999 114.1 44.9999 114 46.2999C114 47.5999 111.7 49.1 110.7 50C109.3 51.3 108.2 52.0999 107 53.0999C107.4 50.9999 109.1 48.4999 110.5 46.5999C109.1 45.3999 108 44.1 106.4 42.5C105.2 41.3 102.7 39.6 102.7 38C102.7 36.5 105.2 35.1999 106.4 34.2999C108 33.0999 109.3 32.2 110.7 31.2Z"  />
<path fill-rule="evenodd" clip-rule="evenodd" d="M125.9 54.1001C131.6 57.2001 137 60.6001 142.7 63.7001C137.6 67.4001 131.5 70.2001 126.1 73.7001C125.6 72.4001 126.1 70.2001 125.9 68.6001H121.8V114.6C121.8 119.5 122.6 125.2 121.6 129.7C120 136.5 110.6 140.6 103.6 136.5C101.4 135.2 98.7999 132 98.2999 128.7C97.6999 124.1 98.2999 118.5 98.2999 113V81.7001C98.2999 77.5001 99.2999 68.6001 95.9999 68.6001C92.5999 68.6001 93.6999 77.3001 93.6999 82.3001V114C93.6999 119.2 94.4999 125.5 93.4999 129.7C90.8999 140.6 73.0999 141 70.3999 129.7C69.3999 125.6 70.1999 119.2 70.1999 113.9V82.2001C70.1999 77.0001 71.3999 68.7001 67.8999 68.7001C64.2999 68.7001 65.5999 79.0001 65.5999 82.6001V115.1C65.5999 120.8 66.3999 126.7 65.3999 131C64.6999 133.9 62.0999 136.8 60.2999 137.8C53.1999 141.9 43.8999 138 42.2999 131C41.1999 126.4 42.0999 120.5 42.0999 115.5V68.9001C37.8999 68.0001 33.2999 69.6001 30.5999 68.3001C27.4999 66.8001 27.1999 61.3001 30.5999 59.7001C32.3999 58.9001 36.0999 59.3001 38.3999 59.3001C45.3999 59.3001 49.4999 59.8001 51.0999 64.8001C52.3999 68.8001 51.4999 75.5001 51.4999 81.0001V122.5C51.4999 126.7 50.8999 131.5 54.9999 129.7C57.0999 128.8 56.1999 119.8 56.1999 115.4V84.9001C56.1999 76.3001 55.2999 68.2001 58.6999 63.8001C60.4999 61.4001 64.6999 58.6001 69.6999 59.3001C74.8999 60.0001 79.0999 65.1001 79.6999 69.7001C80.1999 73.9001 79.6999 79.4001 79.6999 84.8001V122.4C79.6999 126.4 79.3999 130.3 83.1999 128.7C85.2999 127.8 84.3999 118 84.3999 114.8V84.7001C84.3999 79.5001 83.7999 74.2001 84.3999 69.8001C85.0999 64.2001 91.5999 57.3001 99.4999 59.8001C103.5 61.1001 107.3 65.1001 107.9 69.8001C108.4 73.8001 107.9 79.3001 107.9 84.9001V114.8C107.9 118.8 107.1 127.8 108.9 128.7C113 130.8 112.6 126 112.6 121.7V81.4001C112.6 71.6001 111.1 62.2001 118.1 59.9001C120.5 59.1001 122.6 59.7001 125.9 59.5001C126.4 58.2001 125.9 56.0001 126.1 54.4001L125.9 54.1001Z"  />
</svg>
