<svg width="168" height="168" viewBox="0 0 168 168" fill="none" xmlns="http://www.w3.org/2000/svg">
<path fill-rule="evenodd" clip-rule="evenodd" d="M84.9002 59.7002C84.5002 68.6002 84.9002 78.3002 84.7002 87.5002C87.4002 87.4002 90.6002 87.7002 93.0002 87.3002C93.1002 86.0002 92.8002 84.3002 93.2002 83.3002C98.1002 83.4002 103.5 83.1002 108.2 83.5002V98.5002C106.9 98.5002 105.1 98.3002 104 98.7002V106.9H131.8V98.6002H127.6C127 90.1002 128.4 81.5002 127.6 73.8002C127 68.4002 122.8 64.5002 117.5 64.0002C110.5 63.4002 101.1 64.5002 93.0002 64.0002V59.8002H84.8002L84.9002 59.7002ZM113.7 121.1C112.5 123.4 110.7 126 110.4 128.8C109.1 139.7 124.8 139.8 125.5 130.6C125.8 127.3 123.9 124.3 122.5 121.6C121 118.6 119.3 115.8 117.8 113.8C116.4 116.2 115.1 118.4 113.6 121.1H113.7Z" fill="white"/>
<path fill-rule="evenodd" clip-rule="evenodd" d="M31.9999 40.2002C41.1999 40.3002 50.8999 40.0002 59.7999 40.4002V48.6002H55.5999V63.9002H70.6999C70.7999 62.6002 70.4999 60.8002 70.8999 59.7002C73.5999 59.8002 76.6999 59.5002 79.0999 59.9002C78.9999 69.0002 79.2999 78.6002 78.8999 87.5002C76.1999 87.4002 73.0999 87.7002 70.6999 87.3002V83.3002C62.6999 82.9002 53.2999 83.9002 46.5999 83.3002C40.8999 82.8002 36.5999 78.7002 36.0999 73.2002C35.3999 65.6002 36.5999 57.0002 36.0999 48.6002H31.8999V40.3002L31.9999 40.2002Z"  />
<path fill-rule="evenodd" clip-rule="evenodd" d="M93.0998 59.7001V63.9001C101.2 64.4001 110.5 63.3001 117.6 63.9001C123 64.4001 127.2 68.3001 127.7 73.7001C128.5 81.4001 127.1 90.0001 127.7 98.5001H131.9V106.8H104.1V98.6001C105.2 98.2001 106.9 98.6001 108.3 98.4001V83.4001C103.6 83.0001 98.2998 83.4001 93.2998 83.2001C92.8998 84.2001 93.2998 85.9001 93.0998 87.2001C90.6998 87.6001 87.4998 87.2001 84.7998 87.4001C84.8998 78.2001 84.5998 68.5001 84.9998 59.6001H93.1998L93.0998 59.7001Z"  />
<path fill-rule="evenodd" clip-rule="evenodd" d="M117.9 113.8C119.3 115.8 121 118.6 122.6 121.6C124 124.3 125.9 127.3 125.6 130.6C124.8 139.8 109.1 139.6 110.5 128.8C110.8 126.1 112.6 123.5 113.8 121.1C115.2 118.4 116.6 116.2 118 113.8H117.9Z"  />
</svg>
