<svg width="168" height="168" viewBox="0 0 168 168" fill="none" xmlns="http://www.w3.org/2000/svg">
<path fill-rule="evenodd" clip-rule="evenodd" d="M91.1001 26.1999C87.1001 27.6999 83.1001 30.9999 79.7001 33.8999C69.5001 42.8999 63.0001 56.9999 66.2001 76.5999C67.1001 82.2999 68.7001 86.5999 70.3001 91.7999C73.9001 103.7 77.1001 118.9 74.2001 134.1C73.9001 135.7 71.7001 140.3 73.3001 141.6C74.7001 142.8 78.8001 140.3 80.2001 139.5C94.0001 130.8 104.6 115.7 101.2 92.6999C100.4 87.1999 98.9001 81.6999 97.3001 76.7999C93.6001 65.2999 90.2001 48.9999 93.0001 33.8999C93.5001 31.1999 95.6001 25.6999 91.5001 26.1999C91.4001 26.1999 91.2001 26.1999 91.1001 26.1999ZM49.7001 121.5C56.6001 116.2 62.2001 107.9 62.1001 95.9999C62.1001 85.1999 58.1001 78.5999 56.3001 69.9999C55.2001 64.5999 54.5001 54.3999 55.7001 48.0999C55.9001 47.1999 57.8001 40.9999 54.2001 42.6999C44.7001 47.1999 36.8001 55.8999 36.0001 68.8999C35.3001 79.1999 39.3001 86.9999 41.4001 96.3999C43.0001 103.6 43.7001 111.5 42.5001 118.7C42.1001 120.9 41.1001 123.1 41.6001 125.4C45.1001 125.4 47.6001 123.2 49.8001 121.5H49.7001ZM118.6 121.7C125.1 116.8 130.6 109.3 131.3 98.9999C132.1 86.2999 127.4 78.9999 125.5 68.4999C124.5 62.9999 123.9 53.7999 125.1 47.6999C125.6 45.3999 126.5 41.1999 123.4 42.9999C113.4 48.5999 105.2 56.4999 105.2 71.7999C105.2 87.0999 107.8 85.5999 109.7 92.5999C111.5 99.2999 112.8 106.8 112.3 115.3C112.1 119 110.5 122.1 111 125.4C114.3 125.4 116.7 123.2 118.7 121.8L118.6 121.7Z" fill="white"/>
<path fill-rule="evenodd" clip-rule="evenodd" d="M91.5002 26.2001C95.6002 25.7001 93.5002 31.3001 93.0002 33.9001C90.2002 49.0001 93.6002 65.3001 97.3002 76.8001C98.8002 81.7001 100.4 87.2001 101.2 92.7001C104.6 115.6 93.9002 130.8 80.2002 139.5C78.8002 140.4 74.8002 142.8 73.3002 141.6C71.7002 140.2 73.8002 135.7 74.2002 134.1C77.2002 119 74.0002 103.7 70.3002 91.8001C68.7002 86.6001 67.2002 82.2001 66.2002 76.6001C63.0002 57.0001 69.6002 42.9001 79.7002 33.9001C83.0002 31.0001 87.1002 27.7001 91.1002 26.2001C91.2002 26.2001 91.4002 26.2001 91.5002 26.2001Z"  />
<path fill-rule="evenodd" clip-rule="evenodd" d="M41.6001 125.4C41.0001 123.1 42.1001 120.9 42.5001 118.7C43.7001 111.5 43.0001 103.6 41.4001 96.4C39.3001 87 35.3001 79.2 36.0001 68.9C36.9001 56 44.8001 47.2 54.2001 42.7C57.8001 41 55.9001 47.2 55.7001 48.1C54.5001 54.4 55.2001 64.5 56.3001 70C58.1001 78.6 62.1001 85.1 62.1001 96C62.1001 107.9 56.6001 116.3 49.7001 121.5C47.6001 123.1 45.0001 125.3 41.5001 125.4H41.6001Z"  />
<path fill-rule="evenodd" clip-rule="evenodd" d="M110.9 125.4C110.4 122.1 111.9 119 112.2 115.3C112.8 106.8 111.5 99.2001 109.6 92.6001C107.7 85.6001 105.1 79.2001 105.1 71.8001C105.1 56.5001 113.3 48.7001 123.3 43.0001C126.5 41.2001 125.5 45.4001 125 47.7001C123.8 53.8001 124.4 63.0001 125.4 68.5001C127.3 78.9001 132 86.3001 131.2 99.0001C130.5 109.4 125 116.9 118.5 121.7C116.5 123.2 114.1 125.4 110.8 125.3L110.9 125.4Z"  />
</svg>
