<svg class="pause-icon" width="20" height="20" viewBox="0 0 20 20" fill="none" xmlns="http://www.w3.org/2000/svg">
<circle cx="10" cy="10" r="9" stroke="white" stroke-width="2"/>
<g clip-path="url(#clip0_868_27)">
<path d="M8.60049 13.9994H7.40049C7.29446 13.9992 7.19282 13.957 7.11784 13.882C7.04286 13.807 7.00066 13.7054 7.00049 13.5994V6.39936C7.00049 6.17836 7.17949 5.99936 7.40049 5.99902H8.60049C8.70652 5.9992 8.80816 6.0414 8.88314 6.11638C8.95811 6.19135 9.00031 6.29299 9.00049 6.39902V13.599C9.00049 13.82 8.82149 13.999 8.60049 13.9994ZM12.6002 13.9994H11.4002C11.2941 13.9994 11.1923 13.9572 11.1173 13.8822C11.0423 13.8072 11.0002 13.7054 11.0002 13.5994V6.39902C11.0002 6.29294 11.0423 6.1912 11.1173 6.11618C11.1923 6.04117 11.2941 5.99902 11.4002 5.99902H12.6002C12.7062 5.99902 12.808 6.04117 12.883 6.11618C12.958 6.1912 13.0002 6.29294 13.0002 6.39902V13.599C13.0002 13.7051 12.958 13.8069 12.883 13.8819C12.808 13.9569 12.7062 13.999 12.6002 13.999V13.9994Z" fill="white"/>
</g>
<defs>
<clipPath id="clip0_868_27">
<rect width="6" height="8" fill="white" transform="translate(7 6)"/>
</clipPath>
</defs>
</svg>
