<svg width="168" height="168" viewBox="0 0 168 168" fill="none" xmlns="http://www.w3.org/2000/svg">
<path fill-rule="evenodd" clip-rule="evenodd" d="M25.4001 103.1V66.3999C24.9001 62.5999 36.8001 61.9999 39.6001 63.7999C41.1001 64.7999 41.3001 66.7999 41.2001 68.9999H68.8001V41.5999C66.1001 41.5999 64.4001 41.4999 63.4001 39.7999C62.1001 37.6999 62.4001 29.2999 63.4001 27.5999C65.0001 24.9999 69.4001 25.7999 74.4001 25.7999H94.4001C97.4001 25.7999 102.1 25.2999 104 26.1999C106.5 27.3999 106 30.1999 106 33.7999C106 39.1999 106 42.0999 100.2 41.5999V68.9999H127.8C127.6 66.4999 127.9 65.1999 129 64.1999C130.5 62.7999 139.5 62.7999 141.2 63.3999C144.3 64.5999 143.4 70.0999 143.4 75.1999V94.7999C143.4 98.0999 143.9 102.5 143 104.4C141.8 107 138.2 106.4 134.6 106.4C131 106.4 126.6 106 127.8 100.6H100.2V128C103.3 128 104.8 128.4 105.6 130C106.7 132.2 106.6 140.1 105.6 142C104.2 144.6 98.3001 143.8 94.4001 143.8H74.4001C71.1001 143.8 66.5001 144.2 64.8001 143.4C62.4001 142.2 62.8001 138.9 62.8001 135.2C62.8001 131.5 63.4001 127.6 68.8001 128V100.6H41.2001C42.6001 108.2 34.2001 106.1 28.2001 106.4C26.9001 105.7 25.8001 104.8 25.4001 103.2V103.1ZM66.7001 37.5999H102V29.7999H66.9001C66.4001 31.9999 66.9001 35.0999 66.7001 37.5999ZM131.4 67.4999C131.5 79.0999 131.1 91.1999 131.6 102.4H139.2C139.7 90.9999 139.2 78.7999 139.4 67.0999C137.6 67.0999 134.3 67.0999 131.8 67.0999C131.8 66.5999 131.3 67.0999 131.4 67.4999ZM29.4001 102.5H37.2001V67.1999H29.6001C29.1001 78.5999 29.6001 90.7999 29.4001 102.5ZM107.9 88.2999C107.6 85.9999 103 86.6999 99.7001 86.6999C96.4001 86.6999 91.1001 86.3999 89.1001 87.0999C87.8001 88.3999 88.3001 95.3999 88.3001 99.2999C88.3001 103.2 87.3001 110.1 90.1001 110.3C93.3001 110.5 92.3001 104.5 92.3001 101.5C92.3001 98.4999 92.1001 93.7999 92.5001 90.6999C96.0001 89.8999 108.4 92.7999 107.9 88.2999ZM115.9 88.4999C115.9 87.2999 114.9 86.1999 113.1 86.8999C108.8 88.4999 116.2 93.3999 115.9 88.4999ZM119.7 88.8999C120 91.4999 124.3 90.4999 127.5 90.6999C127.9 89.6999 127.5 87.9999 127.7 86.6999C124.2 86.8999 119.4 85.7999 119.7 88.8999ZM91.9001 118.8C91.1001 117.8 89.4001 117.8 88.7001 118.6C87.3001 120.2 88.9001 125.5 88.3001 127.8H92.3001C91.7001 124.8 93.3001 120.8 91.9001 118.8ZM66.7001 139.6H102V131.8H66.9001C66.4001 134 66.9001 137.1 66.7001 139.6Z"  />
</svg>
