<svg width="45" height="40" viewBox="0 0 45 40" fill="none" xmlns="http://www.w3.org/2000/svg" aria-hidden="true">
<path d="M0 39.3686C0 36.9826 0 34.5966 0 32.2107C0 29.7253 0 27.2896 0 24.9036C0 17.2487 1.1 11.234 3.3 6.85977C5.5 2.48551 9.35 0.198955 14.85 0.00012207L17.7 5.81592C14.6 6.11416 12.45 7.60538 11.25 10.2896C10.15 12.8744 9.6 17.0001 9.6 22.6668H17.55V39.3686H0ZM26.4 39.3686C26.4 36.9826 26.4 34.5966 26.4 32.2107C26.4 29.7253 26.4 27.2896 26.4 24.9036C26.4 17.2487 27.5 11.234 29.7 6.85977C31.9 2.48551 35.75 0.198955 41.25 0.00012207L44.1 5.81592C41 6.11416 38.85 7.60538 37.65 10.2896C36.55 12.8744 36 17.0001 36 22.6668H43.95V39.3686H26.4Z" fill="#E11D35"/>
</svg>
