<svg width="168" height="168" viewBox="0 0 168 168" fill="none" xmlns="http://www.w3.org/2000/svg">
<path fill-rule="evenodd" clip-rule="evenodd" d="M105.1 98.4999C104.1 97.2999 102 95.9999 101.6 94.0999C100.8 90.2999 101.6 84.4999 101.6 79.3999V64.6999C101.6 53.8999 102.5 42.9999 101.6 34.9999C100.5 25.1999 92.1998 17.9999 81.9998 18.3999C71.7998 18.7999 64.3998 26.2999 63.4998 35.7999C62.2998 48.5999 63.4998 65.4999 63.4998 79.3999C63.4998 93.2999 64.4998 90.3999 63.4998 94.0999C63.0998 95.4999 60.6998 97.0999 59.9998 97.8999C55.2998 102.8 51.2998 109.9 51.2998 119.4C51.2998 141.6 74.2998 156.8 94.8998 147.7C102 144.6 108.6 138.1 111.5 130.3C115.8 118.8 111.7 105.7 105.2 98.3999L105.1 98.4999ZM84.3998 142.9C63.9998 144.4 51.7998 121 63.6998 105.3C65.7998 102.5 67.0998 102.3 70.7998 98.7999V49.1999C70.7998 43.8999 69.9998 37.1999 71.2998 33.3999C74.5998 24.1999 89.3998 23.1999 93.3998 32.8999C94.9998 36.8999 94.1998 42.8999 94.1998 48.6999V81.8999C94.1998 87.0999 92.9998 94.5999 94.1998 98.4999C94.6998 100.1 96.8998 101.1 97.9998 102C101.9 105.4 105.3 110.6 105.9 117.2C107.2 132.5 95.7998 141.9 84.3998 142.8V142.9Z" fill="white"/>
<path fill-rule="evenodd" clip-rule="evenodd" d="M86.0998 92.3999V104.3C92.2998 106.9 96.9998 110.6 97.7998 117.4C98.7998 125.7 93.0998 133.8 84.6998 134.8C76.0998 135.9 68.2998 130.4 67.2998 122C66.0998 112.1 71.5998 107.1 78.6998 104.8C78.6998 101.8 78.6998 96.1999 78.6998 92.3999H86.0998Z" fill="white"/>
</svg>
