<svg width="100" height="88" viewBox="0 0 100 88" fill="none" xmlns="http://www.w3.org/2000/svg">
<path d="M24.9961 87.0968H74.9884L100 43.5561L74.9884 0H24.9961L0 43.5561L24.9961 87.0968Z" fill="#11B2B9"/>
<path d="M49.1969 40.8658C54.8195 40.8658 59.3775 36.3078 59.3775 30.6852C59.3775 25.0626 54.8195 20.5046 49.1969 20.5046C43.5743 20.5046 39.0164 25.0626 39.0164 30.6852C39.0164 36.3078 43.5743 40.8658 49.1969 40.8658Z" fill="white"/>
<path d="M33.264 67.074C38.8866 67.074 43.4446 62.516 43.4446 56.8935C43.4446 51.2708 38.8866 46.7129 33.264 46.7129C27.6414 46.7129 23.0834 51.2708 23.0834 56.8935C23.0834 62.516 27.6414 67.074 33.264 67.074Z" fill="white"/>
<path d="M65.8178 68.3724C71.4403 68.3724 75.9984 63.8143 75.9984 58.1918C75.9984 52.5692 71.4403 48.0112 65.8178 48.0112C60.1952 48.0112 55.6372 52.5692 55.6372 58.1918C55.6372 63.8143 60.1952 68.3724 65.8178 68.3724Z" fill="white"/>
<path d="M33.2641 57.693C31.0113 57.693 29.1798 55.8615 29.1798 53.6087C29.1798 51.3559 31.0113 49.5244 33.2641 49.5244C35.5168 49.5244 37.3483 51.3559 37.3483 53.6087C37.3483 55.8615 35.5168 57.693 33.2641 57.693ZM33.2641 51.2183C31.9399 51.2183 30.8651 52.2931 30.8651 53.6173C30.8651 54.9414 31.9399 56.0163 33.2641 56.0163C34.5882 56.0163 35.663 54.9414 35.663 53.6173C35.663 52.2931 34.5882 51.2183 33.2641 51.2183Z" fill="#192232"/>
<path d="M27.7351 65.9475C27.2708 65.9475 26.8925 65.5692 26.8925 65.1049C26.8925 60.5735 29.6956 56.8848 33.1349 56.8848C33.5993 56.8848 33.9776 57.2631 33.9776 57.7274C33.9776 58.1917 33.5993 58.5701 33.1349 58.5701C30.6156 58.5701 28.5691 61.5021 28.5691 65.1049C28.5691 65.5692 28.1908 65.9475 27.7265 65.9475H27.7351Z" fill="#192232"/>
<path d="M39.0335 65.9475C38.5692 65.9475 38.1909 65.5692 38.1909 65.1049C38.1909 61.5021 36.1788 58.5701 33.7111 58.5701C33.2467 58.5701 32.8684 58.1917 32.8684 57.7274C32.8684 57.2631 33.2467 56.8848 33.7111 56.8848C37.1074 56.8848 39.8676 60.5735 39.8676 65.1049C39.8676 65.5692 39.4892 65.9475 39.0249 65.9475H39.0335Z" fill="#192232"/>
<path d="M50.0568 48.8795C49.5924 48.8795 49.2141 48.5012 49.2141 48.0369V44.0128C49.2141 43.5485 49.5924 43.1702 50.0568 43.1702C50.5211 43.1702 50.8994 43.5485 50.8994 44.0128V48.0369C50.8994 48.5012 50.5211 48.8795 50.0568 48.8795Z" fill="#192232"/>
<path d="M45.9812 51.5708C45.7061 51.5708 45.4395 51.4418 45.2761 51.1924C45.0182 50.8055 45.1214 50.281 45.5169 50.023L49.412 47.4435C49.7989 47.1855 50.3234 47.2887 50.5814 47.6843C50.8393 48.0712 50.7362 48.5957 50.3406 48.8536L46.4455 51.4332C46.2994 51.5278 46.1446 51.5708 45.9812 51.5708Z" fill="#192232"/>
<path d="M54.012 51.5452C53.8486 51.5452 53.6853 51.4936 53.5391 51.399L49.8418 48.8625C49.4548 48.5959 49.3602 48.08 49.6268 47.6931C49.8933 47.3061 50.4179 47.2116 50.7962 47.4781L54.4935 50.0147C54.8805 50.2812 54.975 50.7971 54.7085 51.184C54.5451 51.4248 54.2786 51.5538 54.012 51.5538V51.5452Z" fill="#192232"/>
<path d="M33.264 68.5011C27.0473 68.5011 22 63.4451 22 57.237C22 51.029 27.0559 45.9731 33.264 45.9731C39.4721 45.9731 44.528 51.029 44.528 57.237C44.528 63.4451 39.4721 68.5011 33.264 68.5011ZM33.264 47.6498C27.9759 47.6498 23.6767 51.949 23.6767 57.237C23.6767 62.5251 27.9759 66.8244 33.264 66.8244C38.552 66.8244 42.8513 62.5251 42.8513 57.237C42.8513 51.949 38.552 47.6498 33.264 47.6498Z" fill="#192232"/>
<path d="M49.4978 30.7281C47.245 30.7281 45.4136 28.8967 45.4136 26.6438C45.4136 24.391 47.245 22.5596 49.4978 22.5596C51.7506 22.5596 53.5821 24.391 53.5821 26.6438C53.5821 28.8967 51.7506 30.7281 49.4978 30.7281ZM49.4978 24.2535C48.1737 24.2535 47.0989 25.3283 47.0989 26.6524C47.0989 27.9766 48.1737 29.0514 49.4978 29.0514C50.822 29.0514 51.8968 27.9766 51.8968 26.6524C51.8968 25.3283 50.822 24.2535 49.4978 24.2535Z" fill="#192232"/>
<path d="M43.9691 38.9827C43.5048 38.9827 43.1265 38.6044 43.1265 38.14C43.1265 33.6087 45.9296 29.9199 49.3689 29.9199C49.8333 29.9199 50.2116 30.2983 50.2116 30.7626C50.2116 31.2269 49.8333 31.6052 49.3689 31.6052C46.8496 31.6052 44.8032 34.5373 44.8032 38.14C44.8032 38.6044 44.4248 38.9827 43.9605 38.9827H43.9691Z" fill="#192232"/>
<path d="M55.2675 38.9827C54.8032 38.9827 54.4249 38.6044 54.4249 38.14C54.4249 34.5373 52.4128 31.6052 49.9451 31.6052C49.4807 31.6052 49.1024 31.2269 49.1024 30.7626C49.1024 30.2983 49.4807 29.9199 49.9451 29.9199C53.3415 29.9199 56.1016 33.6087 56.1016 38.14C56.1016 38.6044 55.7232 38.9827 55.2589 38.9827H55.2675Z" fill="#192232"/>
<path d="M49.4979 41.5366C43.2812 41.5366 38.2339 36.4807 38.2339 30.2726C38.2339 24.0645 43.2812 19 49.4979 19C55.7146 19 60.7618 24.0559 60.7618 30.264C60.7618 36.4721 55.706 41.528 49.4979 41.528V41.5366ZM49.4979 20.6853C44.2098 20.6853 39.9106 24.9845 39.9106 30.2726C39.9106 35.5607 44.2098 39.8599 49.4979 39.8599C54.7859 39.8599 59.0852 35.5607 59.0852 30.2726C59.0852 24.9845 54.7859 20.6853 49.4979 20.6853Z" fill="#192232"/>
<path d="M65.9639 58.1917C63.7111 58.1917 61.8796 56.3603 61.8796 54.1075C61.8796 51.8547 63.7111 50.0232 65.9639 50.0232C68.2167 50.0232 70.0482 51.8547 70.0482 54.1075C70.0482 56.3603 68.2167 58.1917 65.9639 58.1917ZM65.9639 51.7171C64.6397 51.7171 63.5649 52.7919 63.5649 54.1161C63.5649 55.4402 64.6397 56.515 65.9639 56.515C67.2881 56.515 68.3629 55.4402 68.3629 54.1161C68.3629 52.7919 67.2881 51.7171 65.9639 51.7171Z" fill="#192232"/>
<path d="M60.4351 66.4463C59.9707 66.4463 59.5924 66.068 59.5924 65.6037C59.5924 61.0723 62.3955 57.3835 65.8349 57.3835C66.2992 57.3835 66.6775 57.7619 66.6775 58.2262C66.6775 58.6905 66.2992 59.0688 65.8349 59.0688C63.3155 59.0688 61.2691 62.0009 61.2691 65.6037C61.2691 66.068 60.8908 66.4463 60.4265 66.4463H60.4351Z" fill="#192232"/>
<path d="M71.7335 66.4463C71.2691 66.4463 70.8908 66.068 70.8908 65.6037C70.8908 62.0009 68.8788 59.0688 66.411 59.0688C65.9467 59.0688 65.5684 58.6905 65.5684 58.2262C65.5684 57.7619 65.9467 57.3835 66.411 57.3835C69.8074 57.3835 72.5675 61.0723 72.5675 65.6037C72.5675 66.068 72.1892 66.4463 71.7249 66.4463H71.7335Z" fill="#192232"/>
<path d="M65.9639 68.9999C59.7472 68.9999 54.7 63.944 54.7 57.7359C54.7 51.5278 59.7558 46.4719 65.9639 46.4719C72.172 46.4719 77.2279 51.5278 77.2279 57.7359C77.2279 63.944 72.172 68.9999 65.9639 68.9999ZM65.9639 48.1486C60.6759 48.1486 56.3767 52.4479 56.3767 57.7359C56.3767 63.024 60.6759 67.3232 65.9639 67.3232C71.252 67.3232 75.5512 63.024 75.5512 57.7359C75.5512 52.4479 71.252 48.1486 65.9639 48.1486Z" fill="#192232"/>
</svg>
