<svg width="176" height="13" fill="none" xmlns="http://www.w3.org/2000/svg"><path d="M1.25 4h2.5L5 2 3.75 0h-2.5L0 2l1.25 2ZM10.25 4h2.5L14 2l-1.25-2h-2.5L9 2l1.25 2ZM19.25 4h2.5L23 2l-1.25-2h-2.5L18 2l1.25 2ZM28.25 4h2.5L32 2l-1.25-2h-2.5L27 2l1.25 2ZM37.25 4h2.5L41 2l-1.25-2h-2.5L36 2l1.25 2ZM46.25 4h2.5L50 2l-1.25-2h-2.5L45 2l1.25 2ZM55.25 4h2.5L59 2l-1.25-2h-2.5L54 2l1.25 2ZM64.25 4h2.5L68 2l-1.25-2h-2.5L63 2l1.25 2ZM73.25 4h2.5L77 2l-1.25-2h-2.5L72 2l1.25 2ZM82.25 4h2.5L86 2l-1.25-2h-2.5L81 2l1.25 2ZM91.25 4h2.5L95 2l-1.25-2h-2.5L90 2l1.25 2ZM100.25 4h2.5L104 2l-1.25-2h-2.5L99 2l1.25 2ZM109.25 4h2.5L113 2l-1.25-2h-2.5L108 2l1.25 2ZM118.25 4h2.5L122 2l-1.25-2h-2.5L117 2l1.25 2ZM127.25 4h2.5L131 2l-1.25-2h-2.5L126 2l1.25 2ZM136.25 4h2.5L140 2l-1.25-2h-2.5L135 2l1.25 2ZM145.25 4h2.5L149 2l-1.25-2h-2.5L144 2l1.25 2ZM154.25 4h2.5L158 2l-1.25-2h-2.5L153 2l1.25 2ZM163.25 4h2.5L167 2l-1.25-2h-2.5L162 2l1.25 2ZM172.25 4h2.5L176 2l-1.25-2h-2.5L171 2l1.25 2ZM1.25 13h2.5L5 11 3.75 9h-2.5L0 11l1.25 2ZM10.25 13h2.5L14 11l-1.25-2h-2.5L9 11l1.25 2ZM19.25 13h2.5L23 11l-1.25-2h-2.5L18 11l1.25 2ZM28.25 13h2.5L32 11l-1.25-2h-2.5L27 11l1.25 2ZM37.25 13h2.5L41 11l-1.25-2h-2.5L36 11l1.25 2ZM46.25 13h2.5L50 11l-1.25-2h-2.5L45 11l1.25 2ZM55.25 13h2.5L59 11l-1.25-2h-2.5L54 11l1.25 2ZM64.25 13h2.5L68 11l-1.25-2h-2.5L63 11l1.25 2ZM73.25 13h2.5L77 11l-1.25-2h-2.5L72 11l1.25 2ZM82.25 13h2.5L86 11l-1.25-2h-2.5L81 11l1.25 2ZM91.25 13h2.5L95 11l-1.25-2h-2.5L90 11l1.25 2ZM100.25 13h2.5l1.25-2-1.25-2h-2.5L99 11l1.25 2ZM109.25 13h2.5l1.25-2-1.25-2h-2.5L108 11l1.25 2ZM118.25 13h2.5l1.25-2-1.25-2h-2.5L117 11l1.25 2ZM127.25 13h2.5l1.25-2-1.25-2h-2.5L126 11l1.25 2ZM136.25 13h2.5l1.25-2-1.25-2h-2.5L135 11l1.25 2ZM145.25 13h2.5l1.25-2-1.25-2h-2.5L144 11l1.25 2ZM154.25 13h2.5l1.25-2-1.25-2h-2.5L153 11l1.25 2Z" fill="#00844F"/></svg>