<?xml version="1.0" encoding="UTF-8"?><svg id="a" xmlns="http://www.w3.org/2000/svg" width="4.4in" height="1.8in" viewBox="0 0 319.2 126.5"><defs><style>.b,.c,.d,.e,.f,.g,.h,.i{stroke-miterlimit:10;}.b,.c,.d,.e,.g,.h,.i{fill:none;}.b,.d,.g,.i{stroke:#fff;}.c{stroke-width:2px;}.c,.e,.f,.h{stroke:#231f20;}.d,.f,.h{stroke-width:3px;}.e{stroke-width:4.5px;}.f,.j{fill:#df1e35;}.g{stroke-width:1.5px;}.j{stroke-width:0px;}.i{stroke-width:1px;}</style></defs><polygon class="f" points="252.4 125 295 125 310.7 52 268.1 52 252.4 125"/><polyline class="j" points="297.3 1.8 74.6 1.8 65.5 44.1 295.9 44.1"/><polyline class="j" points="295.8 2.8 73.1 2.8 64 45.1 294.4 45.1"/><polygon class="f" points="62 52 62 52 53.7 52 64.6 1.5 28.6 1.5 1.9 125 37.9 125 48 78.5 56.2 78.5 46.2 125 88.8 125 104.5 52 62 52"/><polygon class="i" points="52.3 53.5 62.8 3 29.8 3 3.8 123.5 36.7 123.5 46.8 76.9 58 77 48.1 123.6 87.6 123.4 102.5 53.5 52.3 53.5"/><polygon class="f" points="215.6 52 215.6 52 208.7 52 208.7 52 166.1 52 166.1 52 157.3 52 157.3 52 114.7 52 98.9 125 141.5 125 151.5 78.5 160.4 78.5 150.3 125 192.9 125 202.9 78.5 209.9 78.5 199.9 125 242.4 125 258.2 52 215.6 52"/><path class="f" d="m317.7,23c0,11.7-9.5,21.2-21.2,21.2s-21.2-9.5-21.2-21.2,9.5-21.2,21.2-21.2,21.2,9.5,21.2,21.2Z"/><line class="h" x1="128.1" y1="2.2" x2="119" y2="44.5"/><line class="h" x1="176.1" y1="2.2" x2="167" y2="44.5"/><line class="h" x1="225.6" y1="2.2" x2="216.5" y2="44.5"/><line class="h" x1="274.5" y1="2.2" x2="265.4" y2="44.5"/><polyline class="e" points="74.8 3.7 116.9 23.5 66.9 43.2"/><polyline class="g" points="73.1 4.6 112.4 23.1 65.3 41.6"/><line class="h" x1="124.5" y1="16.7" x2="75.5" y2="1.8"/><line class="h" x1="126.2" y1="8.8" x2="86.4" y2="1.7"/><line class="h" x1="121.4" y1="30.7" x2="68.7" y2="44.1"/><line class="h" x1="120.3" y1="37.9" x2="79.9" y2="44.1"/><path class="d" d="m312.4,23c0,8.7-7.1,15.8-15.8,15.8s-15.8-7.1-15.8-15.8,7.1-15.8,15.8-15.8,15.8,7.1,15.8,15.8Z"/><polyline class="h" points="297.3 1.8 74.6 1.8 65.5 44.1 295.9 44.1"/><polygon class="b" points="129.5 3.2 174 3.3 165.5 42.5 121 42.3 129.5 3.2"/><polygon class="b" points="177.7 3.2 223.5 3.3 215 42.5 169.2 42.3 177.7 3.2"/><polygon class="b" points="227 3.2 272.8 3.3 264.3 42.5 218.5 42.3 227 3.2"/><polygon class="i" points="100.6 123.7 115.8 53.5 256.2 53.5 241.2 123.4 201.7 123.5 211.6 77 201.6 76.9 191.6 123.5 152.2 123.8 162 77.2 150.2 77 140.1 123.5 100.6 123.7"/><polygon class="i" points="269.5 53.4 308.7 53.8 293.8 123.4 254.3 123.4 269.5 53.4"/><polyline class="c" points="8 114.9 32 5.4 56.5 5.4"/><polyline class="c" points="259 114.9 271.5 56.4 296 56.4"/><polyline class="c" points="105.6 114.9 118.5 56.2 247.5 56.2"/><line class="c" x1="53.1" y1="114.8" x2="61.5" y2="75.4"/><line class="c" x1="157.2" y1="114.8" x2="165.6" y2="75.4"/><line class="c" x1="207.4" y1="114.8" x2="215.8" y2="75.4"/><line class="c" x1="51.3" y1="56.6" x2="98.2" y2="56.6"/></svg>