<svg width="100" height="87" viewBox="0 0 100 87" fill="none" xmlns="http://www.w3.org/2000/svg">
<path d="M24.9961 86.1702H75.0039L100 43.0851L75.0039 0H24.9961L0 43.0851L24.9961 86.1702Z" fill="#0079A8"/>
<path d="M25.8572 43.9109C25.2989 43.9109 24.843 43.4549 24.8523 42.8966C24.8895 31.2474 33.1891 21.0218 44.5871 18.5655C44.8011 18.5189 45.0151 18.4724 45.2198 18.4352C51.6585 17.2256 58.2275 18.5562 63.6892 22.1942C69.1416 25.8136 72.9099 31.3405 74.2776 37.7419C74.3986 38.2909 74.045 38.8213 73.4961 38.9422C72.9564 39.0632 72.4167 38.7096 72.2958 38.1607C71.0304 32.2803 67.5784 27.2 62.5633 23.8784C57.5389 20.538 51.5096 19.3098 45.5827 20.4263C45.3966 20.4636 45.2011 20.5008 45.0151 20.5473C34.5382 22.799 26.9086 32.2058 26.8714 42.9059C26.8714 43.4643 26.4155 43.9109 25.8572 43.9109Z" fill="#192232"/>
<path d="M49.8255 68C38.3159 68 27.9321 59.9702 25.4106 48.2652C25.2896 47.7162 25.6432 47.1858 26.1829 47.0649C26.7225 46.944 27.2622 47.2975 27.3831 47.8372C30.0443 60.2215 42.2889 68.121 54.6732 65.4598C54.85 65.4226 55.0081 65.3854 55.157 65.3482C58.9439 64.4457 62.4331 62.6033 65.2802 60.0167C70.0627 55.6808 72.8076 49.5027 72.8169 43.064C72.8169 42.5058 73.2728 42.0498 73.831 42.0498C74.3893 42.0498 74.8452 42.5058 74.8452 43.064C74.8452 50.061 71.8492 56.7881 66.648 61.5054C63.5496 64.3248 59.7627 66.3252 55.6781 67.2928C55.5106 67.3393 55.2965 67.3952 55.0825 67.4324C53.324 67.8139 51.5655 67.9907 49.8348 67.9907L49.8255 68Z" fill="#192232"/>
<path d="M25.7455 45.0273C25.485 45.0273 25.2245 44.9249 25.0291 44.7296L20.2931 39.9936C19.9023 39.6028 19.9023 38.9608 20.2931 38.5606C20.6839 38.1699 21.3259 38.1699 21.726 38.5606L25.7548 42.5895L29.7836 38.5606C30.1744 38.1699 30.8164 38.1699 31.2166 38.5606C31.6166 38.9515 31.6073 39.5935 31.2166 39.9936L26.4713 44.7389C26.2759 44.9342 26.0153 45.0366 25.7548 45.0366L25.7455 45.0273Z" fill="#192232"/>
<path d="M69.2812 48.4887C69.0206 48.4887 68.7601 48.3864 68.5647 48.1909C68.1739 47.8002 68.1739 47.1581 68.5647 46.7581L73.31 42.0128C73.7008 41.622 74.3428 41.622 74.7429 42.0128L79.4789 46.7488C79.8696 47.1395 79.8696 47.7816 79.4789 48.1816C79.088 48.5818 78.446 48.5725 78.046 48.1816L74.0171 44.1528L69.9883 48.1816C69.7929 48.3771 69.5324 48.4794 69.2719 48.4794L69.2812 48.4887Z" fill="#192232"/>
<path d="M49.7905 56.1423C57.0576 56.1423 62.9488 50.2511 62.9488 42.984C62.9488 35.7169 57.0576 29.8257 49.7905 29.8257C42.5234 29.8257 36.6322 35.7169 36.6322 42.984C36.6322 50.2511 42.5234 56.1423 49.7905 56.1423Z" fill="white"/>
<path d="M49.7905 43.5248C46.8037 43.5248 44.3755 41.0966 44.3755 38.1098C44.3755 35.123 46.8037 32.6948 49.7905 32.6948C52.7773 32.6948 55.2055 35.123 55.2055 38.1098C55.2055 41.0966 52.7773 43.5248 49.7905 43.5248ZM49.7905 34.8055C47.9679 34.8055 46.4803 36.2872 46.4803 38.1157C46.4803 39.9442 47.962 41.4258 49.7905 41.4258C51.619 41.4258 53.1006 39.9442 53.1006 38.1157C53.1006 36.2872 51.619 34.8055 49.7905 34.8055Z" fill="#172233"/>
<path d="M42.3471 54.6374C41.765 54.6374 41.2947 54.167 41.2947 53.5849C41.2947 47.5291 45.0282 42.6021 49.62 42.6021C50.2021 42.6021 50.6725 43.0724 50.6725 43.6545C50.6725 44.2365 50.2021 44.7069 49.62 44.7069C46.1864 44.7069 43.3995 48.6873 43.3995 53.5791C43.3995 54.1611 42.9292 54.6315 42.3471 54.6315V54.6374Z" fill="#172233"/>
<path d="M57.5633 54.6371C56.9812 54.6371 56.5108 54.1667 56.5108 53.5847C56.5108 48.6929 53.771 44.7125 50.402 44.7125C49.82 44.7125 49.3496 44.2422 49.3496 43.6601C49.3496 43.078 49.82 42.6077 50.402 42.6077C54.9292 42.6077 58.6157 47.5347 58.6157 53.5905C58.6157 54.1726 58.1453 54.643 57.5633 54.643V54.6371Z" fill="#172233"/>
<path d="M49.7905 58.0766C41.471 58.0766 34.7037 51.3093 34.7037 42.9899C34.7037 34.6704 41.471 27.8972 49.7905 27.8972C58.11 27.8972 64.8773 34.6645 64.8773 42.984C64.8773 51.3035 58.11 58.0707 49.7905 58.0707V58.0766ZM49.7905 30.008C42.6293 30.008 36.8086 35.8345 36.8086 42.9899C36.8086 50.1452 42.6352 55.9718 49.7905 55.9718C56.9458 55.9718 62.7724 50.1452 62.7724 42.9899C62.7724 35.8345 56.9517 30.0021 49.7905 30.0021V30.008Z" fill="#172233"/>
</svg>
