<svg width="100" height="87" viewBox="0 0 100 87" fill="none" xmlns="http://www.w3.org/2000/svg">
<path d="M24.9961 86.1702H75.0039L100 43.0851L75.0039 0H24.9961L0 43.0851L24.9961 86.1702Z" fill="#00844F"/>
<mask id="mask0_217_711" style="mask-type:luminance" maskUnits="userSpaceOnUse" x="16" y="18" width="68" height="50">
<path d="M83.2889 18H16V68H83.2889V18Z" fill="white"/>
</mask>
<g mask="url(#mask0_217_711)">
<path d="M28.8 27.6444C29.5911 27.111 30.3733 26.9599 30.8 26.9155C30.8978 26.8799 31.0489 26.8354 31.2356 26.791C32.6756 26.4354 34.3289 26.6043 35.3956 27.1555C38 28.5066 38.4089 32.8533 37.4578 35.6888C37.2533 36.2933 37.0044 36.7821 36.7911 37.1377C40.4444 36.551 44.0978 35.9644 47.7511 35.3777C45.12 31.8933 45.12 27.6977 47.2089 25.511C48.6044 24.0443 50.5956 23.8488 51.4489 23.8132C51.84 23.7866 54.3556 23.6266 56.1067 25.4488C57.8844 27.2888 58.1422 30.391 56.5867 32.9599C56.3022 33.5466 56.0178 34.1333 55.7422 34.7199C57.4578 34.7821 59.1733 34.8444 60.8889 34.8977C62.4267 35.4221 63.9556 35.9466 65.4933 36.471C64.4089 33.6177 65.2356 30.5333 67.3689 28.9599C69.5644 27.3421 72.1956 28.0088 72.5778 28.1155C73.2978 28.3288 75.6178 29.111 76.5778 31.1999C77.8667 33.9999 76.2756 38.2488 72.16 40.5866C73.0311 41.3777 73.8933 42.1599 74.7644 42.951C75.3067 45.8577 75.8578 48.7644 76.4 51.671C77.1022 52.0177 77.8133 52.3555 78.5156 52.7021C79.2444 52.2755 79.9644 51.8577 80.6933 51.431C81.5822 51.591 82.2667 52.2844 82.3911 53.1288C82.5156 53.9999 82.0178 54.7555 81.4222 55.1288C80.5689 55.6621 79.3422 55.4844 78.5156 54.6488C76.7822 54.871 75.0489 55.0933 73.3067 55.3155C72.72 54.1244 72.1333 52.7555 71.6089 51.1999C71.2533 50.1421 70.9778 49.1377 70.7556 48.2044C70.2489 50.391 69.7511 52.5866 69.2444 54.7733C68.7378 56.0621 68.2311 57.3599 67.7333 58.6488C55.6889 58.5866 43.6356 58.5244 31.5911 58.4621C31.6356 57.5733 31.6711 56.6933 31.7156 55.8044L29.6533 47.1466C28.4622 49.0844 27.2711 51.0221 26.08 52.9599C21.7511 46.7466 20.1334 44.3199 19.8667 43.8133C19.8578 43.7866 19.8222 43.7244 19.7511 43.6444C19.2889 43.1199 18.2222 43.2888 17.2978 43.5733C16.6045 42.6577 16.6756 41.4399 17.36 40.7288C17.8756 40.1955 18.7111 39.9733 19.4222 40.2488C20.3645 40.6044 20.9245 41.7866 20.5689 42.9688C21.9822 44.4444 23.3956 45.911 24.8089 47.3866C25.0311 47.5644 25.2533 47.751 25.4756 47.9288C26.4889 45.0221 27.4933 42.1155 28.5067 39.2088L30.6222 39.271C30.0622 38.9688 27.92 37.7333 26.9867 35.0933C26.2578 33.0221 26.5244 30.7644 27.4133 29.2177C27.6267 28.8444 28.0178 28.1866 28.8089 27.6444H28.8Z" fill="white"/>
<path d="M51.7689 37.8665C50.3022 37.8665 48.8089 37.1731 47.5378 35.8931C46.5511 34.8887 45.7422 33.582 45.2533 32.2042C44.9689 31.4042 44.8089 30.6042 44.7733 29.8309C44.6933 28.0087 45.3156 26.2665 46.5422 24.9154C47.7689 23.5643 49.4489 22.7821 51.2711 22.6932C52.3111 22.6487 53.3333 22.8265 54.2933 23.2443C56.7111 24.2843 58.2844 26.5687 58.4089 29.1909C58.5067 31.3331 57.6178 33.8487 56.1333 35.5909C54.9422 37.0042 53.5022 37.7865 51.9822 37.8665C51.9111 37.8665 51.84 37.8665 51.7689 37.8665ZM51.6 24.5065C51.52 24.5065 51.44 24.5065 51.36 24.5065C50.0267 24.5687 48.8 25.1465 47.9022 26.1332C47.0044 27.1198 46.5422 28.3998 46.6044 29.7331C46.6311 30.3287 46.7644 30.9509 46.9867 31.5909C47.3778 32.7198 48.0444 33.7954 48.8444 34.6042C49.8044 35.5731 50.88 36.0798 51.9022 36.0354C53.1644 35.9731 54.1422 35.1198 54.7467 34.4087C55.9289 33.0131 56.6667 30.9509 56.5956 29.2709C56.5067 27.3509 55.3511 25.6798 53.5822 24.9154C52.9511 24.6398 52.2844 24.5065 51.6089 24.5065H51.6Z" fill="#192232"/>
<path d="M33.4222 40.471C32.3289 40.471 31.1733 40.1332 30.0622 39.4666C28.8533 38.7466 27.7422 37.6799 26.9244 36.4621C26.4533 35.7599 26.0889 35.0221 25.8578 34.2843C25.3244 32.5421 25.4933 30.6932 26.3466 29.0843C27.2 27.4754 28.6222 26.2843 30.3644 25.751C31.36 25.4399 32.3911 25.3688 33.4311 25.5288C36.0266 25.9376 38.1244 27.7421 38.8978 30.2577C39.5289 32.311 39.2978 34.9599 38.2933 37.031C37.4933 38.7021 36.3022 39.8221 34.8444 40.2666C34.3822 40.4088 33.9022 40.4799 33.4133 40.4799L33.4222 40.471ZM32.3822 27.271C31.8844 27.271 31.3955 27.3421 30.9155 27.4932C29.6355 27.8843 28.5955 28.7554 27.9733 29.9288C27.3511 31.111 27.2266 32.4621 27.6178 33.7421C27.7955 34.311 28.08 34.8799 28.4533 35.4488C29.12 36.4443 30.0266 37.3154 31.0044 37.9021C32.1778 38.5954 33.3511 38.8177 34.32 38.5154C35.5289 38.1421 36.2578 37.0666 36.6666 36.231C37.4578 34.5866 37.6622 32.3999 37.1644 30.791C36.5955 28.951 35.0666 27.6266 33.1644 27.3332C32.9066 27.2977 32.6489 27.271 32.3911 27.271H32.3822Z" fill="#192232"/>
<path d="M69.68 41.8401C68.9067 41.8401 68.1778 41.6801 67.5111 41.369C66.1245 40.7112 65.0578 39.3512 64.5156 37.5468C64.1156 36.1957 64.0178 34.6579 64.24 33.2179C64.3645 32.3735 64.5956 31.5912 64.9334 30.8979C65.7156 29.2446 67.0934 28.009 68.8089 27.3957C70.5245 26.7823 72.3823 26.8712 74.0267 27.6535C74.9689 28.0979 75.7778 28.7379 76.4356 29.5646C78.08 31.6179 78.4 34.3735 77.2711 36.7468C76.3467 38.6846 74.3823 40.4801 72.2489 41.3335C71.3689 41.689 70.5067 41.8668 69.6889 41.8668L69.68 41.8401ZM71.0934 28.809C70.5245 28.809 69.9645 28.9068 69.4134 29.1023C68.16 29.5468 67.1467 30.4623 66.5778 31.6712C66.32 32.2135 66.1423 32.8179 66.0445 33.4935C65.8578 34.6757 65.9378 35.929 66.2667 37.0223C66.6578 38.329 67.3778 39.289 68.2934 39.7246C69.44 40.2668 70.7023 39.9646 71.5645 39.6268C73.2623 38.9512 74.8889 37.4757 75.6089 35.9557C76.4356 34.2223 76.1956 32.2046 74.9956 30.7023C74.5156 30.1068 73.92 29.6357 73.2267 29.3068C72.5511 28.9868 71.8223 28.8179 71.0934 28.8179V28.809Z" fill="#192232"/>
<path d="M71.9822 59.6177H28.6488C28.1422 59.6177 27.7333 59.2088 27.7333 58.7022C27.7333 58.1955 28.1422 57.7866 28.6488 57.7866H71.9822C72.4888 57.7866 72.8977 58.1955 72.8977 58.7022C72.8977 59.2088 72.4888 59.6177 71.9822 59.6177Z" fill="#192232"/>
<path d="M25.1911 49.4488C24.9244 49.4488 24.6755 49.3333 24.4977 49.1288L19.7511 43.6266C19.4222 43.2444 19.4666 42.6666 19.8489 42.3377C20.2311 42.0088 20.8089 42.0533 21.1377 42.4355L24.8355 46.7199L27.44 38.9866C27.5555 38.6399 27.8667 38.3999 28.2222 38.3644L30.6578 38.1511C31.1644 38.1066 31.6 38.4799 31.6533 38.9777C31.7067 39.4755 31.3244 39.9199 30.8267 39.9733L28.9867 40.1333L26.0622 48.8177C25.9555 49.1288 25.6978 49.3599 25.3689 49.4222C25.3067 49.4311 25.2533 49.4399 25.1911 49.4399V49.4488Z" fill="#192232"/>
<path d="M37.1645 38.2577C36.7378 38.2577 36.3556 37.9555 36.2667 37.511C36.1689 37.0132 36.4978 36.5332 36.9956 36.4443L48.0178 34.3466C48.5067 34.2488 48.9956 34.5777 49.0845 35.0754C49.1823 35.5732 48.8534 36.0532 48.3556 36.1421L37.3334 38.2399C37.2801 38.2488 37.2178 38.2577 37.1645 38.2577Z" fill="#192232"/>
<path d="M43.4844 58.9598C43.1022 58.9598 42.7466 58.7198 42.6222 58.3376C40.4444 51.8131 39.3866 47.0309 39.2977 43.2798C39.2977 43.0487 39.3777 42.8176 39.5377 42.6487L46.6577 34.7998C46.9955 34.4265 47.5733 34.3998 47.9466 34.7376C48.32 35.0754 48.3466 35.6531 48.0088 36.0265L41.1377 43.5998C41.28 47.1109 42.3111 51.6265 44.3555 57.7598C44.5155 58.2398 44.2577 58.7553 43.7777 58.9153C43.68 58.9509 43.5822 58.9598 43.4844 58.9598Z" fill="#192232"/>
<path d="M44.6933 58.9598C44.2044 58.9598 43.7956 58.5687 43.7778 58.0798L43.3244 44.4176L40.6311 45.0754C40.1422 45.1909 39.6444 44.8976 39.5289 44.3998C39.4133 43.9109 39.7067 43.4131 40.2044 43.2976L43.9911 42.3731C44.2578 42.3109 44.5422 42.3731 44.7556 42.5331C44.9778 42.702 45.1111 42.9598 45.12 43.2265L45.6089 58.0087C45.6267 58.5154 45.2267 58.9331 44.7289 58.9509C44.72 58.9509 44.7111 58.9509 44.7022 58.9509L44.6933 58.9598Z" fill="#192232"/>
<path d="M50.1332 37.5645H46.1955C45.6888 37.5645 45.2799 37.1555 45.2799 36.6489C45.2799 36.1422 45.6888 35.7334 46.1955 35.7334H50.1332C50.6399 35.7334 51.0488 36.1422 51.0488 36.6489C51.0488 37.1555 50.6399 37.5645 50.1332 37.5645Z" fill="#192232"/>
<path d="M32.4089 58.9599C32.0711 58.9599 31.7511 58.7733 31.5911 58.4533C30.3911 56.0444 29.5734 53.1822 29.0578 49.5555L26.7734 53.6355C26.6222 53.9022 26.3467 54.0799 26.0445 54.0977C25.7334 54.1155 25.44 53.9822 25.2534 53.7422L18.7911 45.2533C18.4889 44.8533 18.56 44.2755 18.9689 43.9733C19.3689 43.6711 19.9467 43.7422 20.2489 44.1511L25.8667 51.5288L28.8445 46.2044C29.04 45.8577 29.44 45.6711 29.8311 45.7599C30.2222 45.8399 30.5156 46.1688 30.5511 46.5688C30.9867 51.3333 31.84 54.8533 33.2267 57.6444C33.4489 58.0977 33.2711 58.6488 32.8178 58.8711C32.6845 58.9333 32.5511 58.9688 32.4089 58.9688V58.9599Z" fill="#192232"/>
<path d="M18.7733 45.0132C17.2444 45.0132 16 43.7688 16 42.2399C16 40.711 17.2444 39.4666 18.7733 39.4666C20.3022 39.4666 21.5467 40.711 21.5467 42.2399C21.5467 43.7688 20.3022 45.0132 18.7733 45.0132ZM18.7733 41.2977C18.2578 41.2977 17.8311 41.7243 17.8311 42.2399C17.8311 42.7554 18.2578 43.1821 18.7733 43.1821C19.2889 43.1821 19.7156 42.7554 19.7156 42.2399C19.7156 41.7243 19.2889 41.2977 18.7733 41.2977Z" fill="#192232"/>
<path d="M80.5155 56.2134C78.9866 56.2134 77.7422 54.969 77.7422 53.4401C77.7422 51.9112 78.9866 50.6667 80.5155 50.6667C82.0444 50.6667 83.2889 51.9112 83.2889 53.4401C83.2889 54.969 82.0444 56.2134 80.5155 56.2134ZM80.5155 52.4979C80 52.4979 79.5733 52.9245 79.5733 53.4401C79.5733 53.9556 80 54.3823 80.5155 54.3823C81.0311 54.3823 81.4577 53.9556 81.4577 53.4401C81.4577 52.9245 81.0311 52.4979 80.5155 52.4979Z" fill="#192232"/>
<path d="M53.3422 50.5599C52.0355 50.5599 50.9689 49.4932 50.9689 48.1866C50.9689 46.8799 52.0355 45.8132 53.3422 45.8132C54.6489 45.8132 55.7155 46.8799 55.7155 48.1866C55.7155 49.4932 54.6489 50.5599 53.3422 50.5599ZM53.3422 47.6355C53.04 47.6355 52.7911 47.8843 52.7911 48.1866C52.7911 48.4888 53.04 48.7377 53.3422 48.7377C53.6444 48.7377 53.8933 48.4888 53.8933 48.1866C53.8933 47.8843 53.6444 47.6355 53.3422 47.6355Z" fill="#192232"/>
<path d="M55.6267 58.9598C55.6267 58.9598 55.6001 58.9598 55.5823 58.9598C55.0756 58.9331 54.6845 58.5064 54.7112 58.0087L55.0756 50.1509C54.8445 50.1953 54.6045 50.1509 54.4001 50.0353C54.1512 49.8753 53.9912 49.6087 53.9734 49.3064L53.8845 47.6887C53.8667 47.3687 54.0267 47.0576 54.2934 46.8798L55.2534 46.2487L55.4934 41.0487C55.5112 40.6576 55.7778 40.3198 56.1512 40.2131C56.5245 40.1064 56.9334 40.2487 57.1556 40.5687L59.7689 44.3376C59.9112 44.542 59.9645 44.7909 59.9112 45.0309C59.8667 45.2709 59.7245 45.4842 59.5201 45.6176L57.0312 47.2531V47.3509L62.3734 45.0842L56.9956 37.3509L53.8934 37.2176C53.3867 37.1998 52.9956 36.7731 53.0223 36.2664C53.0401 35.7598 53.4756 35.3687 53.9734 35.3953L57.5289 35.5553C57.8134 35.5642 58.0801 35.7153 58.2401 35.9464L64.5156 44.9776C64.6756 45.1998 64.7201 45.4842 64.6401 45.7509C64.5601 46.0176 64.3734 46.2309 64.1156 46.3376L56.9245 49.3864L56.5156 58.0976C56.4889 58.5864 56.0889 58.9687 55.6001 58.9687L55.6267 58.9598ZM57.2001 43.822L57.1467 44.9953L57.7423 44.6042L57.2001 43.822Z" fill="#192232"/>
<path d="M64.8978 37.5021L60.8089 35.8843H56.3467V34.0532H60.9867C61.1022 34.0532 61.2178 34.071 61.3245 34.1154L65.5733 35.7954L64.9067 37.4932L64.8978 37.5021Z" fill="#192232"/>
<path d="M68.9422 58.4178L67.2711 57.6711C68.4 55.1378 69.2711 52.2845 69.9378 48.9245C70.0178 48.5245 70.3467 48.2223 70.7556 48.1867C71.1556 48.1511 71.5378 48.3911 71.6889 48.7734L73.8045 54.3289L77.6178 54.0267L77.5111 53.2889L76.1778 52.8978C75.8489 52.8 75.6089 52.5334 75.5378 52.2045L73.6622 42.9956L71.2267 40.8445L72.4356 39.4756L75.1022 41.8311C75.2533 41.9645 75.3511 42.1423 75.3956 42.3289L77.2267 51.2978L78.5956 51.6978C78.9422 51.7956 79.1911 52.0889 79.2445 52.4445L79.5733 54.7289C79.6089 54.9778 79.5378 55.2356 79.3867 55.4311C79.2356 55.6267 78.9956 55.7511 78.7467 55.7689L73.2889 56.2045C72.88 56.24 72.5067 56 72.3645 55.6178L71.0756 52.2489C70.4978 54.5067 69.7956 56.5423 68.96 58.4089L68.9422 58.4178Z" fill="#192232"/>
<path d="M57.2355 58.9244L55.4578 58.4888L55.6178 57.831C56.56 53.9466 57.5378 49.9288 57.4933 48.2132L59.3155 48.1599C59.3689 50.1244 58.4089 54.071 57.3867 58.2577L57.2267 58.9155L57.2355 58.9244Z" fill="#192232"/>
</g>
</svg>
