<svg width="207" height="91" fill="none" xmlns="http://www.w3.org/2000/svg"><g clip-path="url(#a)" fill="#fff"><path d="M0 24.74h6.418v14.416L18.464 24.74h7.905L13.813 39.67l13.021 17.16h-8.046L9.58 44.46l-3.162 3.49v8.884H0V24.74Z"/><path d="M26.463 44.97c0-7.068 5.487-12.417 12.742-12.417 7.255 0 12.742 5.35 12.742 12.51 0 .652-.048 1.396-.186 2.002H32.925c.793 3.07 3.256 5.07 6.51 5.07 2.467 0 4.513-1.115 5.581-2.652h6.559c-1.815 4.699-6.51 7.906-12.277 7.906-7.348 0-12.835-5.35-12.835-12.418Zm6.51-2.324h12.512c-.745-2.884-3.163-4.837-6.28-4.837-3.117 0-5.395 1.909-6.232 4.837ZM61.946 56.6l-9.721-23.486h6.882l6.139 16.139 6.138-16.139h6.79L64.639 65.667h-6.51l3.813-9.067h.004ZM81.293 33.114h6.045v2.652c1.86-2.094 4.465-3.21 7.534-3.21 5.581 0 9.256 3.627 9.256 9.208V56.83h-6.046V43.717c0-3.21-2.046-5.302-5.163-5.302-3.348 0-5.58 2.14-5.58 5.395v13.02h-6.046V33.11v.004ZM108.312 44.97c0-7.068 5.488-12.417 12.743-12.417 7.254 0 12.742 5.35 12.742 12.51 0 .652-.048 1.396-.186 2.002h-18.836c.792 3.07 3.255 5.07 6.51 5.07 2.467 0 4.513-1.115 5.581-2.652h6.559c-1.816 4.699-6.511 7.906-12.277 7.906-7.348 0-12.836-5.35-12.836-12.418Zm6.511-2.324h12.511c-.744-2.884-3.162-4.837-6.279-4.837-3.118 0-5.395 1.909-6.232 4.837ZM136.59 44.97c0-7.068 5.487-12.417 12.742-12.417 6.324 0 11.254 4.047 12.184 9.672h-6.418c-.792-2.28-3.024-3.813-5.766-3.813-3.72 0-6.511 2.839-6.511 6.559s2.791 6.559 6.511 6.559c2.745 0 4.977-1.537 5.766-3.814h6.418c-.93 5.629-5.86 9.673-12.184 9.673-7.255 0-12.742-5.35-12.742-12.418ZM167.097 49.346V38.65h-3.769v-5.536h4.092v-8.74h5.722v8.74h5.487v5.536h-5.487v9.672c0 1.86 1.164 2.977 3.117 2.977h2.374v5.535h-3.256c-5.442 0-8.277-2.604-8.277-7.489h-.003ZM181.654 44.97c0-7.068 4.978-12.417 11.581-12.417 3.163 0 5.815 1.257 7.72 3.348v-2.79h6.046v23.72h-6.046v-2.79c-1.908 2.094-4.557 3.348-7.72 3.348-6.603 0-11.581-5.35-11.581-12.418Zm19.301 0c0-3.72-2.79-6.558-6.559-6.558-3.768 0-6.51 2.839-6.51 6.559s2.79 6.559 6.51 6.559c3.721 0 6.559-2.839 6.559-6.56ZM193.685 10.664H183.3l-5.193 8.993 5.193 8.993h10.385l5.195-8.993-5.195-8.993ZM175.544 0h-10.385l-5.192 8.993 5.192 8.996h10.385l5.192-8.996L175.544 0ZM157.405 10.664h-10.384l-5.193 8.993 5.193 8.993h10.384l5.193-8.993-5.193-8.993ZM37.485 79.589H47.87l5.193-8.993-5.193-8.993H37.485l-5.192 8.993 5.192 8.993ZM55.626 90.253h10.385l5.195-8.993-5.195-8.996H55.626l-5.192 8.996 5.192 8.993ZM73.765 79.589h10.388l5.192-8.993-5.192-8.993H73.765l-5.193 8.993 5.193 8.993ZM99.275 63.614h1.623l3.692 9.086 3.675-9.086h1.591l-4.535 10.978h-1.527l-4.519-10.978ZM109.871 70.535c0-2.418 1.735-4.25 4.057-4.25 1.354 0 2.466.636 3.15 1.656v-1.466h1.369v8.114h-1.369v-1.463c-.684 1.02-1.8 1.655-3.15 1.655-2.322 0-4.057-1.83-4.057-4.25v.004Zm7.21 0c0-1.67-1.241-2.928-2.896-2.928-1.655 0-2.912 1.257-2.912 2.928s1.241 2.928 2.912 2.928c1.671 0 2.896-1.257 2.896-2.928ZM120.801 63.136h1.369v11.456h-1.369V63.136ZM124.4 71.587v-5.109h1.37v4.711c0 1.37.875 2.277 2.229 2.277 1.353 0 2.37-.923 2.37-2.305v-4.68h1.369v8.114h-1.369v-1.177c-.619.876-1.575 1.37-2.8 1.37-1.892 0-3.165-1.273-3.165-3.198l-.004-.003ZM133.531 70.535c0-2.418 1.86-4.25 4.314-4.25 2.453 0 4.314 1.832 4.314 4.25 0 .19-.017.398-.033.574h-7.129c.237 1.434 1.385 2.418 2.912 2.418 1.129 0 2.117-.542 2.579-1.353h1.526c-.635 1.559-2.213 2.61-4.121 2.61-2.498 0-4.359-1.83-4.359-4.249h-.003Zm1.479-.654h5.696c-.238-1.353-1.386-2.338-2.864-2.338-1.479 0-2.563.956-2.832 2.338ZM147.598 66.478h2.322v.812c.619-.636 1.465-1.001 2.45-1.001 2.245 0 3.916 1.831 3.916 4.25 0 2.418-1.671 4.249-3.916 4.249-.988 0-1.831-.366-2.45-1.004v3.836h-2.322V66.478Zm6.302 4.057c0-1.145-.844-2.004-1.989-2.004s-1.988.86-1.988 2.004c0 1.145.843 2.005 1.988 2.005s1.989-.86 1.989-2.005ZM157.208 70.535c0-2.418 1.876-4.25 4.375-4.25 2.498 0 4.374 1.816 4.374 4.298 0 .222-.016.494-.064.7h-6.206c.254.923 1.004 1.51 1.973 1.51.747 0 1.353-.318 1.687-.763h2.482c-.603 1.638-2.229 2.751-4.233 2.751-2.515 0-4.391-1.83-4.391-4.25l.003.004Zm2.499-.795h3.771c-.237-.892-.971-1.466-1.892-1.466-.92 0-1.623.574-1.876 1.466h-.003ZM166.82 70.535c0-2.418 1.876-4.25 4.375-4.25 2.498 0 4.374 1.832 4.374 4.25s-1.876 4.25-4.374 4.25c-2.499 0-4.375-1.832-4.375-4.25Zm6.367 0c0-1.145-.844-2.004-1.989-2.004s-1.988.86-1.988 2.004c0 1.145.843 2.005 1.988 2.005s1.989-.86 1.989-2.005ZM176.939 66.478h2.322v.812c.619-.636 1.463-1.001 2.451-1.001 2.245 0 3.916 1.831 3.916 4.25 0 2.418-1.671 4.249-3.916 4.249-.988 0-1.832-.366-2.451-1.004v3.836h-2.322V66.478Zm6.303 4.057c0-1.145-.844-2.004-1.989-2.004s-1.988.86-1.988 2.004c0 1.145.843 2.005 1.988 2.005s1.989-.86 1.989-2.005ZM187.061 63.136h2.322v11.456h-2.322V63.136ZM190.781 70.535c0-2.418 1.876-4.25 4.374-4.25 2.499 0 4.375 1.816 4.375 4.298 0 .222-.016.494-.064.7h-6.206c.253.923 1.004 1.51 1.972 1.51.747 0 1.354-.318 1.687-.763h2.482c-.606 1.638-2.229 2.751-4.233 2.751-2.514 0-4.391-1.83-4.391-4.25l.004.004Zm2.498-.795h3.772c-.238-.892-.972-1.466-1.893-1.466-.92 0-1.622.574-1.876 1.466h-.003ZM200.156 73.162c0-.892.683-1.575 1.591-1.575.908 0 1.607.683 1.607 1.575 0 .891-.683 1.59-1.607 1.59-.924 0-1.591-.682-1.591-1.59ZM37.094 13.762h4.233c3.182 0 5.571 2.354 5.571 5.49 0 3.137-2.386 5.491-5.57 5.491h-4.234V13.762Zm1.462 1.37v8.242h2.752c2.322 0 4.09-1.767 4.09-4.121 0-2.354-1.768-4.122-4.09-4.122h-2.752ZM48.758 16.626h1.37v1.543c.618-1.05 1.638-1.671 2.911-1.671h.254v1.417h-.254c-1.815 0-2.912 1.08-2.912 2.752v4.073h-1.37v-8.114ZM54.68 14.176a.9.9 0 0 1 .923-.908c.526 0 .908.398.908.908s-.398.907-.908.907-.923-.381-.923-.907Zm.237 2.45h1.37v8.114h-1.37v-8.114ZM57.7 16.626h1.558l2.736 6.475 2.735-6.475h1.527l-3.563 8.114h-1.43l-3.564-8.114ZM66.674 20.683c0-2.418 1.86-4.25 4.313-4.25 2.454 0 4.314 1.832 4.314 4.25 0 .19-.016.398-.032.574h-7.13c.238 1.434 1.386 2.418 2.913 2.418 1.128 0 2.116-.542 2.578-1.353h1.527c-.635 1.559-2.213 2.61-4.121 2.61-2.499 0-4.362-1.83-4.362-4.249Zm1.478-.654h5.696c-.237-1.354-1.385-2.338-2.864-2.338-1.478 0-2.562.956-2.832 2.338ZM80.74 16.626h2.322v.811c.62-.635 1.463-1 2.45-1 2.245 0 3.916 1.831 3.916 4.25 0 2.418-1.67 4.249-3.915 4.249-.988 0-1.832-.366-2.45-1.004v3.836H80.74V16.626Zm6.302 4.057c0-1.145-.843-2.004-1.988-2.004s-1.989.86-1.989 2.004c0 1.145.844 2.005 1.989 2.005s1.988-.86 1.988-2.005ZM90.83 16.626h2.322v1.129c.62-.796 1.463-1.257 2.45-1.257h.318v2.386h-.318c-1.574 0-2.45.811-2.45 2.068v3.788H90.83v-8.114ZM96.365 20.683c0-2.418 1.876-4.25 4.375-4.25 2.498 0 4.374 1.832 4.374 4.25s-1.879 4.25-4.374 4.25c-2.495 0-4.375-1.832-4.375-4.25Zm6.366 0c0-1.145-.843-2.004-1.988-2.004s-1.988.86-1.988 2.004c0 1.145.843 2.005 1.988 2.005s1.988-.86 1.988-2.005ZM107.077 18.743h-1.225v-2.117h1.225v-.542c0-1.912 1.081-2.896 3.181-2.896h1.004v2.117h-.779c-.699 0-1.081.365-1.081 1.032v.286h1.767v2.116h-1.767v6.001h-2.322v-6l-.003.003Zm5.218-4.551c0-.812.619-1.418 1.446-1.418.828 0 1.434.603 1.434 1.418 0 .814-.619 1.433-1.434 1.433-.814 0-1.446-.606-1.446-1.433Zm.285 2.434h2.322v8.114h-2.322v-8.114ZM117.498 22.1v-3.357h-1.209v-2.117h.667c.446 0 .667-.221.667-.667v-1.466h2.197v2.133h1.767v2.117h-1.767v2.976c0 .574.35.907.956.907h.811v2.117h-1.161c-1.924 0-2.928-.907-2.928-2.642ZM122.575 22.277h2.322c0 .478.478.811 1.145.811.591 0 1.02-.269 1.02-.635 0-1.193-4.358-.461-4.358-3.39 0-1.719 1.446-2.626 3.229-2.626 1.941 0 3.31 1.08 3.31 2.546h-2.306c0-.43-.43-.715-1.02-.715-.526 0-.923.237-.923.603 0 1.145 4.374.446 4.374 3.342 0 1.623-1.353 2.723-3.326 2.723-1.972 0-3.47-1.145-3.47-2.659h.003ZM130.307 23.31c0-.892.683-1.575 1.59-1.575.908 0 1.607.683 1.607 1.575 0 .891-.683 1.59-1.607 1.59-.923 0-1.59-.683-1.59-1.59Z"/></g><defs><clipPath id="a"><path fill="#fff" d="M0 0h207v90.253H0z"/></clipPath></defs></svg>