<svg width="208" height="90" fill="none" xmlns="http://www.w3.org/2000/svg"><g clip-path="url(#a)"><path d="M0 24.67h6.42v14.377L18.473 24.67h7.91L13.82 39.558l13.027 17.114h-8.05L9.583 44.336l-3.163 3.48v8.859H0V24.671Z" fill="#23376F"/><path d="M26.475 44.845c0-7.049 5.49-12.383 12.748-12.383 7.258 0 12.748 5.334 12.748 12.476 0 .649-.048 1.39-.186 1.995H32.94c.793 3.061 3.257 5.057 6.514 5.057 2.467 0 4.514-1.113 5.583-2.645h6.561c-1.816 4.685-6.513 7.883-12.282 7.883-7.351 0-12.841-5.334-12.841-12.383Zm6.513-2.319h12.517c-.744-2.875-3.163-4.823-6.282-4.823-3.12 0-5.397 1.903-6.235 4.823ZM61.975 56.441l-9.725-23.42h6.886l6.141 16.093 6.142-16.093h6.792l-13.54 32.462h-6.514l3.815-9.042h.003ZM81.33 33.021h6.048v2.645c1.861-2.088 4.467-3.201 7.538-3.201 5.583 0 9.26 3.617 9.26 9.182v15.025h-6.049V43.594c0-3.201-2.047-5.286-5.165-5.286-3.35 0-5.584 2.133-5.584 5.38v12.984H81.33V33.018v.003ZM108.363 44.845c0-7.049 5.49-12.383 12.748-12.383 7.258 0 12.748 5.334 12.748 12.476 0 .649-.048 1.39-.186 1.995h-18.844c.792 3.061 3.257 5.057 6.513 5.057 2.468 0 4.515-1.113 5.583-2.645h6.562c-1.816 4.685-6.513 7.883-12.283 7.883-7.351 0-12.841-5.334-12.841-12.383Zm6.514-2.319h12.517c-.745-2.875-3.164-4.823-6.283-4.823s-5.397 1.903-6.234 4.823ZM136.654 44.845c0-7.049 5.49-12.383 12.748-12.383 6.328 0 11.26 4.036 12.19 9.645h-6.421c-.792-2.274-3.025-3.802-5.769-3.802-3.722 0-6.513 2.83-6.513 6.54s2.791 6.54 6.513 6.54c2.747 0 4.98-1.532 5.769-3.802h6.421c-.93 5.612-5.862 9.645-12.19 9.645-7.258 0-12.748-5.334-12.748-12.383ZM167.174 49.207V38.541h-3.77v-5.52h4.095v-8.715h5.724v8.715h5.49v5.52h-5.49v9.646c0 1.855 1.165 2.968 3.119 2.968h2.374v5.52h-3.257c-5.445 0-8.281-2.597-8.281-7.468h-.004ZM181.738 44.845c0-7.049 4.98-12.383 11.587-12.383 3.164 0 5.817 1.253 7.723 3.338v-2.782h6.048v23.654h-6.048v-2.783c-1.909 2.089-4.559 3.34-7.723 3.34-6.607 0-11.587-5.335-11.587-12.384Zm19.31 0c0-3.71-2.792-6.54-6.562-6.54-3.77 0-6.513 2.83-6.513 6.54s2.791 6.54 6.513 6.54 6.562-2.83 6.562-6.54Z" fill="#23376F"/><path d="M193.774 10.634h-10.39l-5.195 8.968 5.195 8.967h10.39l5.198-8.967-5.198-8.968Z" fill="#0079A8"/><path d="M175.625 0h-10.389l-5.195 8.968 5.195 8.97h10.389l5.195-8.97L175.625 0Z" fill="#11B2B9"/><path d="M157.477 10.634h-10.39l-5.194 8.968 5.194 8.967h10.39l5.195-8.967-5.195-8.968Z" fill="#00844F"/><path d="M37.503 79.366h10.39l5.195-8.968-5.195-8.967h-10.39l-5.194 8.967 5.194 8.968Z" fill="#0079A8"/><path d="M55.652 90h10.39l5.198-8.968-5.198-8.97h-10.39l-5.195 8.97L55.652 90Z" fill="#11B2B9"/><path d="M73.8 79.366h10.393l5.195-8.968-5.195-8.967H73.8l-5.194 8.967 5.194 8.968ZM99.32 63.436h1.624l3.693 9.06 3.677-9.06h1.592l-4.537 10.947h-1.528l-4.52-10.947ZM109.922 70.338c0-2.412 1.736-4.238 4.059-4.238 1.354 0 2.467.633 3.151 1.65V66.29h1.37v8.091h-1.37v-1.458c-.684 1.017-1.8 1.65-3.151 1.65-2.323 0-4.059-1.826-4.059-4.238v.004Zm7.213 0c0-1.667-1.242-2.92-2.897-2.92-1.656 0-2.914 1.253-2.914 2.92 0 1.666 1.242 2.92 2.914 2.92 1.671 0 2.897-1.254 2.897-2.92ZM120.857 62.96h1.371v11.423h-1.371V62.96ZM124.457 71.387v-5.095h1.37v4.698c0 1.366.876 2.27 2.23 2.27s2.371-.92 2.371-2.299v-4.666h1.37v8.091h-1.37v-1.173c-.619.873-1.575 1.365-2.801 1.365-1.893 0-3.167-1.27-3.167-3.188l-.003-.003ZM133.592 70.338c0-2.412 1.861-4.238 4.315-4.238 2.455 0 4.316 1.826 4.316 4.238 0 .188-.016.396-.032.572h-7.133c.238 1.43 1.386 2.412 2.914 2.412 1.129 0 2.117-.541 2.579-1.35h1.528c-.636 1.554-2.214 2.603-4.123 2.603-2.5 0-4.361-1.826-4.361-4.237h-.003Zm1.479-.653h5.699c-.238-1.35-1.387-2.331-2.866-2.331s-2.563.953-2.833 2.331ZM147.666 66.292h2.323v.809c.619-.633 1.466-.998 2.452-.998 2.246 0 3.917 1.826 3.917 4.238 0 2.411-1.671 4.237-3.917 4.237-.989 0-1.833-.364-2.452-1v3.824h-2.323v-11.11Zm6.305 4.046c0-1.142-.844-2-1.989-2-1.146 0-1.99.858-1.99 2 0 1.141.844 1.999 1.99 1.999 1.145 0 1.989-.858 1.989-2ZM157.282 70.338c0-2.412 1.878-4.238 4.377-4.238 2.5 0 4.377 1.81 4.377 4.285 0 .221-.016.493-.064.698h-6.209c.253.92 1.004 1.506 1.973 1.506.748 0 1.354-.317 1.688-.761h2.483c-.603 1.634-2.23 2.744-4.235 2.744-2.516 0-4.393-1.826-4.393-4.238l.003.004Zm2.5-.794h3.773c-.237-.889-.972-1.461-1.893-1.461s-1.623.572-1.877 1.461h-.003ZM166.898 70.338c0-2.412 1.877-4.238 4.377-4.238s4.377 1.826 4.377 4.238c0 2.411-1.877 4.237-4.377 4.237s-4.377-1.826-4.377-4.237Zm6.37 0c0-1.142-.844-2-1.99-2-1.145 0-1.989.858-1.989 2 0 1.141.844 1.998 1.989 1.998 1.146 0 1.99-.857 1.99-1.998ZM177.021 66.292h2.324v.809c.619-.633 1.463-.998 2.451-.998 2.246 0 3.918 1.826 3.918 4.238 0 2.411-1.672 4.237-3.918 4.237-.988 0-1.832-.364-2.451-1v3.824h-2.324v-11.11Zm6.305 4.046c0-1.142-.843-2-1.989-2-1.145 0-1.989.858-1.989 2 0 1.141.844 1.999 1.989 1.999 1.146 0 1.989-.858 1.989-2ZM187.148 62.96h2.324v11.423h-2.324V62.96ZM190.87 70.338c0-2.412 1.877-4.238 4.377-4.238s4.377 1.81 4.377 4.285c0 .221-.016.493-.065.698h-6.208c.253.92 1.004 1.506 1.973 1.506.748 0 1.354-.317 1.688-.761h2.483c-.606 1.634-2.23 2.744-4.235 2.744-2.516 0-4.393-1.826-4.393-4.238l.003.004Zm2.5-.794h3.773c-.237-.889-.972-1.461-1.893-1.461s-1.623.572-1.877 1.461h-.003ZM200.25 72.957c0-.89.683-1.57 1.591-1.57.909 0 1.608.68 1.608 1.57 0 .889-.683 1.586-1.608 1.586-.924 0-1.591-.681-1.591-1.586ZM37.111 13.723h4.236c3.183 0 5.573 2.348 5.573 5.476 0 3.127-2.387 5.475-5.573 5.475H37.11V13.723Zm1.464 1.366v8.22h2.752c2.324 0 4.092-1.763 4.092-4.11 0-2.348-1.768-4.11-4.091-4.11h-2.754ZM48.781 16.58h1.37v1.538c.62-1.046 1.64-1.667 2.914-1.667h.253v1.414h-.253c-1.816 0-2.914 1.078-2.914 2.744v4.062h-1.37v-8.092ZM54.705 14.136c0-.508.398-.905.924-.905s.908.396.908.905a.896.896 0 0 1-.908.905c-.51 0-.924-.38-.924-.905Zm.238 2.443h1.37v8.092h-1.37v-8.092ZM57.727 16.58h1.559l2.737 6.457 2.737-6.458h1.527l-3.565 8.092h-1.43l-3.565-8.092ZM66.705 20.625c0-2.411 1.861-4.238 4.316-4.238 2.454 0 4.315 1.827 4.315 4.238 0 .189-.016.397-.032.573h-7.133c.238 1.43 1.387 2.41 2.914 2.41 1.13 0 2.118-.54 2.58-1.349h1.527c-.635 1.555-2.214 2.604-4.123 2.604-2.5 0-4.364-1.826-4.364-4.238Zm1.48-.652h5.698c-.238-1.35-1.386-2.332-2.865-2.332-1.48 0-2.564.953-2.834 2.332ZM80.777 16.58H83.1v.809c.62-.634 1.464-.998 2.452-.998 2.246 0 3.918 1.826 3.918 4.237 0 2.412-1.672 4.238-3.918 4.238-.988 0-1.832-.365-2.452-1.001v3.825h-2.323V16.579Zm6.305 4.045c0-1.142-.843-1.999-1.989-1.999-1.145 0-1.99.857-1.99 2 0 1.14.845 1.998 1.99 1.998s1.99-.857 1.99-1.999ZM90.873 16.58h2.323v1.125c.62-.793 1.463-1.254 2.451-1.254h.318v2.38h-.318c-1.575 0-2.45.809-2.45 2.063v3.777h-2.324v-8.092ZM96.41 20.625c0-2.411 1.877-4.238 4.377-4.238 2.499 0 4.376 1.827 4.376 4.238 0 2.412-1.88 4.238-4.376 4.238-2.497 0-4.377-1.826-4.377-4.238Zm6.369 0c0-1.142-.844-1.999-1.989-1.999-1.146 0-1.99.857-1.99 1.999 0 1.142.844 1.999 1.99 1.999 1.145 0 1.989-.857 1.989-1.999ZM107.128 18.69h-1.226v-2.11h1.226v-.541c0-1.906 1.081-2.888 3.183-2.888h1.004v2.11h-.779c-.7 0-1.082.365-1.082 1.03v.285h1.768v2.111h-1.768v5.984h-2.323v-5.984l-.003.003Zm5.221-4.538c0-.81.619-1.414 1.447-1.414.827 0 1.434.602 1.434 1.414 0 .812-.619 1.43-1.434 1.43s-1.447-.605-1.447-1.43Zm.285 2.427h2.323v8.092h-2.323v-8.092ZM117.553 22.039V18.69h-1.209v-2.11h.667c.446 0 .668-.221.668-.666v-1.461h2.197v2.126h1.768v2.111h-1.768v2.968c0 .573.35.905.957.905h.811v2.111h-1.161c-1.925 0-2.93-.905-2.93-2.635ZM122.632 22.215h2.323c0 .476.478.809 1.146.809.59 0 1.02-.269 1.02-.634 0-1.19-4.361-.46-4.361-3.38 0-1.714 1.448-2.62 3.232-2.62 1.941 0 3.311 1.078 3.311 2.54h-2.307c0-.428-.43-.713-1.02-.713-.527 0-.925.236-.925.601 0 1.142 4.377.445 4.377 3.333 0 1.618-1.354 2.715-3.327 2.715-1.974 0-3.472-1.142-3.472-2.651h.003ZM130.367 23.244c0-.889.684-1.57 1.592-1.57s1.607.681 1.607 1.57c0 .89-.683 1.587-1.607 1.587-.924 0-1.592-.681-1.592-1.587Z" fill="#00844F"/></g><defs><clipPath id="a"><path fill="#fff" d="M0 0h207.097v90H0z"/></clipPath></defs></svg>