<svg width="100" height="87" viewBox="0 0 100 87" fill="none" xmlns="http://www.w3.org/2000/svg">
<path d="M24.9961 86.1702H75.0039L100 43.0851L75.0039 0H24.9961L0 43.0851L24.9961 86.1702Z" fill="#00844F"/>
<path d="M28.032 64.5529C26.1528 64.82 24.2688 65.087 22.3896 65.359C22.5182 57.9908 22.6418 50.6276 22.7704 43.2594C24.4369 43.027 26.1083 42.7996 27.7748 42.5671C28.0765 42.7649 28.3781 42.9578 28.6798 43.1556C28.7985 44.3474 28.9171 45.5391 29.0358 46.7309C31.1573 46.5628 33.2787 46.3897 35.4001 46.2215C38.832 46.8248 42.2639 47.4281 45.6958 48.0314C47.0705 49.0155 48.4452 49.9946 49.8199 50.9787L58.9733 50.86C59.3788 51.4485 59.7843 52.0369 60.1898 52.6304C60.2689 53.654 60.348 54.6727 60.4271 55.6963C64.6453 54.4007 68.8634 53.1051 73.0766 51.8045C73.942 52.1457 74.8074 52.4869 75.6678 52.8282C76.375 53.5501 77.0821 54.2672 77.7893 54.9892C76.7953 55.5925 75.7964 56.1958 74.8024 56.799C63.6859 62.8765 54.8343 66.6298 51.1502 67.0156C49.5875 67.1788 48.3612 67.0551 48.3612 67.0551C45.9183 66.8079 44.6425 65.9326 41.4084 64.6568C39.6232 63.9546 40.0782 64.2463 37.3238 63.2425C31.5232 61.126 29.9655 59.9936 28.8529 60.7601C28.3831 61.0864 27.7402 61.9271 28.032 64.5628V64.5529Z" fill="white"/>
<path d="M51.4122 41.7562C57.5243 41.7562 62.4792 36.8013 62.4792 30.6891C62.4792 24.577 57.5243 19.6221 51.4122 19.6221C45.3 19.6221 40.3451 24.577 40.3451 30.6891C40.3451 36.8013 45.3 41.7562 51.4122 41.7562Z" fill="white"/>
<path d="M28.0319 66.3234H22.8445C21.8258 66.3234 21 65.4975 21 64.4788V43.2596C21 42.2409 21.8258 41.415 22.8445 41.415H28.0319C29.0506 41.415 29.8764 42.2409 29.8764 43.2596V64.4788C29.8764 65.4975 29.0506 66.3234 28.0319 66.3234ZM22.8445 43.1854C22.805 43.1854 22.7703 43.22 22.7703 43.2596V64.4788C22.7703 64.5184 22.805 64.553 22.8445 64.553H28.0319C28.0714 64.553 28.1061 64.5184 28.1061 64.4788V43.2596C28.1061 43.22 28.0714 43.1854 28.0319 43.1854H22.8445Z" fill="#172233"/>
<path d="M39.2324 45.3215H29.6934V47.0919H39.2324V45.3215Z" fill="#172233"/>
<path d="M42.5852 57.3231C42.1005 57.3231 41.7049 56.9325 41.7 56.4478C41.6951 55.9583 42.0857 55.5577 42.5753 55.5528L59.8533 55.3352H59.8632C60.3479 55.3352 60.7435 55.7259 60.7484 56.2105C60.7533 56.7 60.3627 57.1006 59.8731 57.1055L42.5951 57.3231H42.5852Z" fill="#172233"/>
<path d="M46.6798 67.5693C46.5858 67.5693 46.4919 67.5545 46.3979 67.5248L29.4116 61.8726C28.9468 61.7193 28.6946 61.2149 28.8528 60.755C29.0061 60.2902 29.5056 60.038 29.9704 60.1962L46.9567 65.8484C47.4216 66.0017 47.6738 66.5061 47.5155 66.966C47.3919 67.3369 47.0457 67.5743 46.6749 67.5743L46.6798 67.5693Z" fill="#172233"/>
<path d="M52.6337 67.3666C52.2925 67.3666 51.971 67.1688 51.8227 66.8375C51.6249 66.3925 51.8276 65.8683 52.2776 65.6705L77.5469 54.5589C77.9969 54.3611 78.5162 54.5638 78.714 55.0138C78.9118 55.4589 78.709 55.9831 78.259 56.1809L52.9897 67.2925C52.876 67.3419 52.7524 67.3666 52.6337 67.3666Z" fill="#172233"/>
<path d="M59.8583 57.1057C59.4924 57.1057 59.1512 56.8782 59.0226 56.5172C58.8594 56.0573 59.0968 55.548 59.5616 55.3848L72.1172 50.9145C72.5771 50.7513 73.0864 50.9886 73.2496 51.4535C73.4128 51.9134 73.1754 52.4227 72.7106 52.5859L60.155 57.0562C60.0561 57.0909 59.9572 57.1057 59.8583 57.1057Z" fill="#172233"/>
<path d="M77.903 56.2452C77.4134 56.2452 77.0178 55.8496 77.0178 55.36C77.0178 53.8864 74.9112 52.6402 72.414 52.6402C71.9244 52.6402 71.5288 52.2446 71.5288 51.755C71.5288 51.2655 71.9244 50.8699 72.414 50.8699C75.9893 50.8699 78.7882 52.843 78.7882 55.36C78.7882 55.8496 78.3926 56.2452 77.903 56.2452Z" fill="#172233"/>
<path d="M50.1215 51.7501H48.3511C48.3511 51.3298 47.5105 50.1974 45.2555 48.9463C43.1885 47.799 40.8791 47.0919 39.2324 47.0919V45.3215C41.1956 45.3215 43.7671 46.0979 46.116 47.3985C47.6143 48.2292 50.1215 49.8957 50.1215 51.7501Z" fill="#172233"/>
<path d="M57.9199 49.9797H48.3512V51.7501H57.9199V49.9797Z" fill="#172233"/>
<path d="M61.4853 56.3887H59.715C59.715 51.7552 58.9633 51.7552 57.9199 51.7552V49.9849C61.2183 49.9849 61.4853 52.8876 61.4853 56.3937V56.3887Z" fill="#172233"/>
<path d="M46.4275 67.51C48.999 68.3803 51.8424 68.0688 54.2012 66.7534C55.1951 66.1995 54.305 64.6666 53.3061 65.2254C51.338 66.3232 49.0286 66.5259 46.8973 65.8039C46.4424 65.6506 45.9281 65.982 45.8094 66.4221C45.6759 66.9067 45.9726 67.3567 46.4275 67.51Z" fill="#172233"/>
<path d="M51.4122 31.144C48.9001 31.144 46.8578 29.1016 46.8578 26.5896C46.8578 24.0775 48.9001 22.0352 51.4122 22.0352C53.9243 22.0352 55.9666 24.0775 55.9666 26.5896C55.9666 29.1016 53.9243 31.144 51.4122 31.144ZM51.4122 23.8104C49.8792 23.8104 48.6281 25.0566 48.6281 26.5945C48.6281 28.1324 49.8743 29.3786 51.4122 29.3786C52.9501 29.3786 54.1963 28.1324 54.1963 26.5945C54.1963 25.0566 52.9501 23.8104 51.4122 23.8104Z" fill="#172233"/>
<path d="M45.1518 40.4902C44.6622 40.4902 44.2666 40.0946 44.2666 39.6051C44.2666 34.5116 47.4067 30.3677 51.2688 30.3677C51.7584 30.3677 52.154 30.7633 52.154 31.2528C52.154 31.7424 51.7584 32.138 51.2688 32.138C48.3809 32.138 46.0369 35.4858 46.0369 39.6001C46.0369 40.0897 45.6413 40.4853 45.1518 40.4853V40.4902Z" fill="#172233"/>
<path d="M57.9495 40.4902C57.46 40.4902 57.0644 40.0946 57.0644 39.605C57.0644 35.4907 54.76 32.1429 51.9264 32.1429C51.4369 32.1429 51.0413 31.7473 51.0413 31.2577C51.0413 30.7682 51.4369 30.3726 51.9264 30.3726C55.7341 30.3726 58.8347 34.5165 58.8347 39.6099C58.8347 40.0995 58.4391 40.4951 57.9495 40.4951V40.4902Z" fill="#172233"/>
<path d="M51.4122 43.383C44.4149 43.383 38.7231 37.6913 38.7231 30.694C38.7231 23.6967 44.4149 18 51.4122 18C58.4095 18 64.1012 23.6918 64.1012 30.689C64.1012 37.6863 58.4095 43.3781 51.4122 43.3781V43.383ZM51.4122 19.7753C45.3891 19.7753 40.4935 24.6758 40.4935 30.694C40.4935 36.7121 45.394 41.6127 51.4122 41.6127C57.4303 41.6127 62.3309 36.7121 62.3309 30.694C62.3309 24.6758 57.4353 19.7703 51.4122 19.7703V19.7753Z" fill="#172233"/>
</svg>
