<svg width="100" height="87" viewBox="0 0 100 87" fill="none" xmlns="http://www.w3.org/2000/svg">
<path d="M24.9961 86.1702H75.0039L100 43.0851L75.0039 0H24.9961L0 43.0851L24.9961 86.1702Z" fill="#11B2B9"/>
<path d="M69.8002 18.9373H30.1023C28.8986 18.9373 27.9227 19.9131 27.9227 21.1169V64.8977C27.9227 66.1015 28.8986 67.0774 30.1023 67.0774H69.8002C71.0039 67.0774 71.9797 66.1015 71.9797 64.8977V21.1169C71.9797 19.9131 71.0039 18.9373 69.8002 18.9373Z" fill="white"/>
<path d="M70.592 68H29.3176C28.0389 68 27 66.9611 27 65.6824V20.3176C27 19.0389 28.0389 18 29.3176 18H70.5992C71.878 18 72.9169 19.0389 72.9169 20.3176V65.6824C72.9169 66.9611 71.878 68 70.5992 68H70.592ZM29.3176 19.8599C29.0634 19.8599 28.8527 20.0706 28.8527 20.3249V65.6896C28.8527 65.9439 29.0634 66.1546 29.3176 66.1546H70.5992C70.8536 66.1546 71.0643 65.9439 71.0643 65.6896V20.3249C71.0643 20.0706 70.8536 19.8599 70.5992 19.8599H29.3176Z" fill="#192232"/>
<path d="M71.9797 22.4248H27.9227V24.2775H71.9797V22.4248Z" fill="#192232"/>
<path d="M66.1747 30.9396L53.2786 30.8815C52.7701 30.8815 52.356 30.4601 52.356 29.9516C52.356 29.443 52.7701 29.0288 53.2859 29.0288L66.1819 29.0869C66.6904 29.0869 67.1046 29.5084 67.1046 30.017C67.1046 30.5255 66.6904 30.9396 66.1819 30.9396H66.1747Z" fill="#192232"/>
<path d="M66.1747 35.0444L53.2786 34.9863C52.7701 34.9863 52.356 34.5649 52.356 34.0563C52.356 33.5477 52.7701 33.1191 53.2859 33.1337L66.1819 33.1918C66.6904 33.1918 67.1046 33.6131 67.1046 34.1217C67.1046 34.6303 66.6904 35.0444 66.1819 35.0444H66.1747Z" fill="#192232"/>
<path d="M66.1747 39.1423L53.2786 39.0841C52.7701 39.0841 52.356 38.6627 52.356 38.1541C52.356 37.6456 52.7701 37.2314 53.2786 37.2314L66.1747 37.2896C66.6832 37.2896 67.0973 37.711 67.0973 38.2196C67.0973 38.7281 66.6832 39.1423 66.1747 39.1423Z" fill="#192232"/>
<path d="M49.0938 54.167H33.3717C32.8631 54.167 32.449 53.7528 32.449 53.2442C32.449 52.7357 32.8631 52.3215 33.3717 52.3215H49.1011C49.6097 52.3215 50.0238 52.7357 50.0238 53.2442C50.0238 53.7528 49.6097 54.167 49.1011 54.167H49.0938Z" fill="#192232"/>
<path d="M49.0938 58.3881H33.3717C32.8631 58.3881 32.449 57.974 32.449 57.4654C32.449 56.9569 32.8631 56.5427 33.3717 56.5427H49.1011C49.6097 56.5427 50.0238 56.9569 50.0238 57.4654C50.0238 57.974 49.6097 58.3881 49.1011 58.3881H49.0938Z" fill="#192232"/>
<path d="M49.0938 62.6093H33.3717C32.8631 62.6093 32.449 62.1952 32.449 61.6866C32.449 61.178 32.8631 60.7639 33.3717 60.7639H49.1011C49.6097 60.7639 50.0238 61.178 50.0238 61.6866C50.0238 62.1952 49.6097 62.6093 49.1011 62.6093H49.0938Z" fill="#192232"/>
<path d="M64.3511 43.4507H63.6536C62.5381 43.4507 61.6339 44.3549 61.6339 45.4704V46.1679C61.6339 47.2833 62.5381 48.1877 63.6536 48.1877H64.3511C65.4666 48.1877 66.3709 47.2833 66.3709 46.1679V45.4704C66.3709 44.3549 65.4666 43.4507 64.3511 43.4507Z" fill="white"/>
<path d="M64.0023 49.1176C62.1859 49.1176 60.7111 47.6427 60.7111 45.8264C60.7111 44.01 62.1859 42.5352 64.0023 42.5352C65.8186 42.5352 67.2935 44.01 67.2935 45.8264C67.2935 47.6427 65.8186 49.1176 64.0023 49.1176ZM64.0023 44.3806C63.2103 44.3806 62.5638 45.0272 62.5638 45.8191C62.5638 46.6111 63.2103 47.2577 64.0023 47.2577C64.7942 47.2577 65.4408 46.6111 65.4408 45.8191C65.4408 45.0272 64.7942 44.3806 64.0023 44.3806Z" fill="#192232"/>
<path d="M56.1558 43.4507H55.4583C54.3428 43.4507 53.4386 44.3549 53.4386 45.4704V46.1679C53.4386 47.2833 54.3428 48.1877 55.4583 48.1877H56.1558C57.2713 48.1877 58.1756 47.2833 58.1756 46.1679V45.4704C58.1756 44.3549 57.2713 43.4507 56.1558 43.4507Z" fill="white"/>
<path d="M55.807 49.1176C53.9906 49.1176 52.5157 47.6427 52.5157 45.8264C52.5157 44.01 53.9906 42.5352 55.807 42.5352C57.6233 42.5352 59.0982 44.01 59.0982 45.8264C59.0982 47.6427 57.6233 49.1176 55.807 49.1176ZM55.807 44.3806C55.015 44.3806 54.3685 45.0272 54.3685 45.8191C54.3685 46.6111 55.015 47.2577 55.807 47.2577C56.5989 47.2577 57.2455 46.6111 57.2455 45.8191C57.2455 45.0272 56.5989 44.3806 55.807 44.3806Z" fill="#192232"/>
<path d="M40.9204 43.4723C45.4465 43.4723 49.1157 39.8032 49.1157 35.2771C49.1157 30.7509 45.4465 27.0818 40.9204 27.0818C36.3943 27.0818 32.7251 30.7509 32.7251 35.2771C32.7251 39.8032 36.3943 43.4723 40.9204 43.4723Z" fill="white"/>
<path d="M40.9203 44.3951C35.8927 44.3951 31.795 40.3047 31.795 35.2699C31.795 30.235 35.8855 26.1445 40.9203 26.1445C45.9552 26.1445 50.0456 30.235 50.0456 35.2699C50.0456 40.3047 45.9552 44.3951 40.9203 44.3951ZM40.9203 28.0045C36.9099 28.0045 33.6477 31.2666 33.6477 35.2771C33.6477 39.2876 36.9099 42.5497 40.9203 42.5497C44.9308 42.5497 48.1929 39.2876 48.1929 35.2771C48.1929 31.2666 44.9308 28.0045 40.9203 28.0045Z" fill="#192232"/>
<path d="M45.0123 35.3227L40.7174 31.0278L36.4226 35.3227L40.7174 39.6175L45.0123 35.3227Z" fill="white"/>
<path d="M40.717 40.5444C40.4699 40.5444 40.2374 40.4499 40.0631 40.2755L35.7692 35.9818C35.406 35.6185 35.406 35.0372 35.7692 34.674L40.0631 30.3802C40.4118 30.0315 41.0221 30.0315 41.3709 30.3802L45.6646 34.674C45.839 34.8484 45.9335 35.0808 45.9335 35.3279C45.9335 35.5749 45.839 35.8074 45.6646 35.9818L41.3709 40.2755C41.1964 40.4499 40.964 40.5444 40.717 40.5444ZM37.7309 35.3206L40.717 38.3067L43.703 35.3206L40.717 32.3346L37.7309 35.3206Z" fill="#192232"/>
<path d="M39.9904 49.0377H33.4807C32.9721 49.0377 32.558 48.6237 32.558 48.1151C32.558 47.6065 32.9721 47.1924 33.4807 47.1924H39.9904C40.4989 47.1924 40.9131 47.6065 40.9131 48.1151C40.9131 48.6237 40.4989 49.0377 39.9904 49.0377Z" fill="#192232"/>
<path d="M44.6402 49.0377H43.3251C42.8165 49.0377 42.4025 48.6237 42.4025 48.1151C42.4025 47.6065 42.8165 47.1924 43.3251 47.1924H44.6402C45.1487 47.1924 45.5629 47.6065 45.5629 48.1151C45.5629 48.6237 45.1487 49.0377 44.6402 49.0377Z" fill="#192232"/>
<path d="M49.1519 49.0377H47.8369C47.3283 49.0377 46.9142 48.6237 46.9142 48.1151C46.9142 47.6065 47.3283 47.1924 47.8369 47.1924H49.1519C49.6605 47.1924 50.0746 47.6065 50.0746 48.1151C50.0746 48.6237 49.6605 49.0377 49.1519 49.0377Z" fill="#192232"/>
<path d="M66.4144 52.6848H52.9735V61.9045H66.4144V52.6848Z" fill="white"/>
<path d="M66.4217 62.8272H52.9808C52.4722 62.8272 52.0581 62.4132 52.0581 61.9046V52.6849C52.0581 52.1763 52.4722 51.7622 52.9808 51.7622H66.4217C66.9302 51.7622 67.3443 52.1763 67.3443 52.6849V61.9046C67.3443 62.4132 66.9302 62.8272 66.4217 62.8272ZM53.9035 60.9746H65.499V53.6076H53.9035V60.9746Z" fill="#192232"/>
<path d="M68.306 62.4094L65.2829 59.2997C65.0914 59.1037 65.096 58.7845 65.292 58.593C65.4881 58.4015 65.8073 58.406 65.9988 58.6021L68.0734 60.736C68.502 59.9654 68.958 59.1994 69.4277 58.4607C69.9247 57.6765 70.4536 56.8968 70.9962 56.1444C71.1603 55.921 71.4704 55.8709 71.6938 56.0304C71.9172 56.1946 71.9674 56.5046 71.8078 56.7281C71.2789 57.4622 70.7636 58.2236 70.2758 58.9942C69.6967 59.9062 69.145 60.8546 68.6343 61.8076L68.3105 62.4094H68.306Z" fill="#192232"/>
<path d="M60.0165 67.2656C60.4861 66.6409 60.9786 66.1165 61.4437 65.6833C61.6306 65.7335 61.8175 65.7882 62.0045 65.8384C61.9407 66.153 61.9042 66.6454 62.1595 67.0786C62.6201 67.8674 63.8694 68.2094 65.1735 67.7306C65.2327 67.8583 65.561 68.5514 66.3863 68.8478C67.2481 69.1578 67.9777 68.7839 68.0962 68.7247C66.8241 71.1458 65.5474 73.5716 64.2752 75.9928C63.4864 74.9076 62.7021 73.8178 61.9133 72.7326C60.5044 72.6825 59.0954 72.6277 57.691 72.5776C57.9509 71.2279 58.5437 69.2217 60.021 67.2656H60.0165Z" fill="white"/>
<path d="M69.6192 70.7173C69.3821 69.9741 69.2362 69.2719 69.1495 68.6381C69.3 68.515 69.4505 68.3918 69.6009 68.2733C69.8244 68.5058 70.2028 68.8205 70.7044 68.8615C71.6118 68.939 72.6149 68.1183 72.9751 66.7777C73.1119 66.8051 73.8734 66.9327 74.5892 66.4357C75.337 65.9114 75.4556 65.0998 75.4738 64.9675C76.7186 67.407 77.9634 69.8418 79.2036 72.2813C77.8631 72.2949 76.518 72.3132 75.1774 72.3268C74.3248 73.4485 73.4676 74.5657 72.6149 75.6873C71.6619 74.6979 70.367 73.0518 69.6192 70.7218V70.7173Z" fill="white"/>
<path d="M68.5248 69.1306C74.0574 69.1306 78.5424 64.5843 78.5424 58.9762C78.5424 53.3681 74.0574 48.8218 68.5248 48.8218C62.9922 48.8218 58.5072 53.3681 58.5072 58.9762C58.5072 64.5843 62.9922 69.1306 68.5248 69.1306Z" fill="white"/>
<path d="M68.4838 65.9068C64.5305 65.9068 61.3114 62.6922 61.3114 58.7344C61.3114 54.7766 64.526 51.562 68.4838 51.562C72.4416 51.562 75.6561 54.7766 75.6561 58.7344C75.6561 62.6922 72.4416 65.9068 68.4838 65.9068ZM68.4838 52.5104C65.0503 52.5104 62.2553 55.3055 62.2553 58.7389C62.2553 62.1724 65.0503 64.9675 68.4838 64.9675C71.9172 64.9675 74.7123 62.1724 74.7123 58.7389C74.7123 55.3055 71.9172 52.5104 68.4838 52.5104Z" fill="#192232"/>
<path d="M67.2755 69.468C67.0475 69.468 66.8059 69.4405 66.5596 69.3722C65.8529 69.1806 65.3787 68.7612 65.0914 68.4192C64.2342 68.7931 63.2402 68.711 62.4879 68.1775C61.7127 67.6212 61.4893 66.8142 61.43 66.308C60.9056 66.1758 60.0484 65.8202 59.5514 64.89C59.1684 64.1742 59.1912 63.4719 59.2824 63.0023C58.5209 62.6284 57.9692 61.9126 57.8324 61.0781C57.6911 60.2072 58.0422 59.5142 58.3249 59.1175C58.0194 58.6889 57.6272 57.9182 57.837 56.947C58.0239 56.0853 58.6076 55.5199 59.1091 55.2144C58.9632 54.7174 58.8583 53.9103 59.2961 53.0896C59.6928 52.3464 60.4132 51.8357 61.2339 51.6806C61.3115 51.2383 61.5258 50.5772 62.1368 50.0802C62.7614 49.5695 63.5913 49.3917 64.3847 49.5741C64.6446 49.1728 65.1416 48.6165 65.9806 48.3885C66.8515 48.156 67.581 48.4159 68.0051 48.6393C68.7893 48.001 69.8335 47.8186 70.7181 48.1925C71.361 48.4615 71.7394 48.9539 71.9492 49.337C72.4735 49.2002 73.3353 49.1181 74.1925 49.6561C75.0133 50.1714 75.3233 50.9556 75.4419 51.4572C75.9343 51.5028 76.6958 51.6943 77.2703 52.3828C77.7947 53.0121 77.9816 53.8602 77.8038 54.6627C78.4878 55.0092 78.9893 55.643 79.158 56.409C79.3267 57.1705 79.1398 57.9502 78.6701 58.5475C78.9209 58.8667 79.1717 59.3181 79.2401 59.8971C79.3541 60.8592 78.9073 61.8396 78.0865 62.4825C78.1868 62.9567 78.237 63.7638 77.7582 64.5617C77.2339 65.4372 76.3949 65.7518 75.9024 65.8658C75.7748 66.3263 75.4647 67.0376 74.7123 67.5437C74.001 68.027 73.2578 68.0681 72.8018 68.0317C72.5009 68.4603 71.8489 69.1807 70.7682 69.3266C69.9794 69.436 69.341 69.1852 68.9444 68.9663C68.5978 69.1898 68.0005 69.4816 67.271 69.4816L67.2755 69.468ZM65.4015 67.0559L65.6705 67.5118C65.7936 67.7216 66.1493 68.2231 66.8195 68.4055C67.7862 68.6654 68.5705 67.9952 68.6069 67.9678L68.9124 67.7034L69.2362 67.945C69.4322 68.0909 69.9566 68.4147 70.6451 68.3235C71.6254 68.1912 72.0951 67.293 72.1133 67.2519L72.2866 66.91L72.6651 66.992C72.8566 67.033 73.5268 67.1334 74.1606 66.7048C74.8446 66.2443 74.9768 65.4965 74.995 65.3506L75.0498 64.9447L75.4556 64.9174C75.4966 64.9174 76.4222 64.8398 76.9101 64.0373C77.3524 63.3032 77.0834 62.5281 77.0515 62.4414L76.9056 62.0539L77.2566 61.8396C77.9452 61.4201 78.3327 60.6997 78.2507 60.0066C78.1868 59.4595 77.8494 59.0855 77.6533 58.9077L77.2247 58.5247L77.6625 58.1554C78.1093 57.7769 78.3099 57.1887 78.1868 56.6187C78.0592 56.0442 77.6305 55.5928 77.0606 55.4378L76.4997 55.2873L76.7323 54.7538C76.9876 54.1747 76.901 53.4908 76.5089 53.0211C75.9617 52.3646 75.1045 52.4421 75.068 52.4467L74.5436 52.5013L74.5208 51.9724C74.5208 51.9314 74.4707 51.0058 73.6682 50.5042C72.8292 49.9799 71.9446 50.3948 71.9036 50.4085L71.3929 50.6547L71.2151 50.1167C71.1604 49.9434 70.9278 49.3643 70.3351 49.1181C69.7149 48.8536 68.9535 49.0543 68.4337 49.6151L68.1191 49.9525L67.7588 49.6698C67.6904 49.6151 67.0521 49.1454 66.2405 49.3597C65.438 49.5741 65.1233 50.2899 65.0869 50.372L64.8954 50.8371L64.4303 50.641C63.8603 50.4039 63.222 50.486 62.766 50.8553C62.2097 51.3113 62.1869 51.9952 62.1915 52.1275V52.6199L61.7036 52.6336C61.0607 52.6519 60.4725 53.0075 60.1761 53.5637C59.7384 54.3799 60.1579 55.1962 60.1761 55.2326L60.4451 55.7479L59.898 55.9394C59.8615 55.9531 59.0043 56.2677 58.8082 57.1659C58.6076 58.0824 59.2824 58.7299 59.3098 58.7572L59.6928 59.1175L59.3143 59.4823C59.287 59.5051 58.676 60.1023 58.8128 60.9231C58.9131 61.5386 59.3827 62.0494 60.0119 62.2226L60.5409 62.3731L60.3448 62.8837C60.2946 63.0205 60.053 63.7228 60.4269 64.4249C60.8965 65.3004 61.8997 65.3916 61.9453 65.3916L62.4331 65.4281L62.4058 65.9205C62.4058 65.957 62.3602 66.8598 63.0669 67.3659C63.6095 67.7535 64.371 67.7489 64.9592 67.3568L65.4015 67.0604V67.0559Z" fill="#192232"/>
<path d="M64.2525 76.4216C63.9606 76.4216 63.6962 76.2528 63.5685 75.9884L61.6671 73.0702L57.8917 73.1614C57.5953 73.2116 57.299 73.093 57.1302 72.8468C56.9935 72.6462 56.9615 72.3863 57.0482 72.1492L57.071 72.099L60.3038 65.679L61.1975 66.1304L58.1607 72.1583L62.1961 72.0579L64.2206 75.1631L67.3257 68.8023L68.2239 69.2401L64.9455 75.9519C64.827 76.2346 64.5534 76.417 64.2479 76.417L64.2525 76.4216Z" fill="#192232"/>
<path d="M72.6924 76.4397C72.6924 76.4397 72.665 76.4397 72.6468 76.4397C72.5829 76.4397 72.3094 76.4077 72.0814 76.125C72.0039 76.0293 71.8032 75.7785 68.6616 68.9892L69.569 68.5697C71.3655 72.4499 72.3276 74.4608 72.7015 75.1949L74.7123 71.9484L78.8297 72.263L75.7154 65.9023L76.6137 65.46L79.9012 72.1672C80.0517 72.4317 80.0289 72.7646 79.842 73.0062C79.6641 73.2342 79.3677 73.3436 79.085 73.2798L75.2458 72.988L73.3809 76.0019C73.2532 76.2664 72.9842 76.4351 72.6969 76.4351L72.6924 76.4397Z" fill="#192232"/>
<path d="M68.2102 61.8032L65.5656 59.0811C65.3969 58.9078 65.4015 58.6296 65.5747 58.4609C65.748 58.2922 66.0262 58.2968 66.1949 58.4701L68.0096 60.335C68.3835 59.6601 68.7802 58.9944 69.1906 58.3469C69.6237 57.663 70.0843 56.979 70.563 56.3225C70.7044 56.1264 70.978 56.0808 71.174 56.2221C71.3701 56.3635 71.4157 56.6371 71.2743 56.8331C70.8093 57.476 70.3578 58.1418 69.9338 58.812C69.4277 59.61 68.9443 60.4353 68.4975 61.2697L68.2148 61.7941L68.2102 61.8032Z" fill="#192232" stroke="#192232" stroke-width="0.3" stroke-miterlimit="10"/>
</svg>
