<svg width="210" height="100" viewBox="0 0 210 100" fill="none" xmlns="http://www.w3.org/2000/svg">
<rect opacity="0.2" x="1" y="1" width="8" height="8" fill="black" fill-opacity="0.25"/>
<rect opacity="0.2" x="1" y="11" width="8" height="8" fill="black" fill-opacity="0.25"/>
<rect opacity="0.2" x="1" y="21" width="8" height="8" fill="black" fill-opacity="0.25"/>
<rect opacity="0.2" x="1" y="31" width="8" height="8" fill="black" fill-opacity="0.25"/>
<rect opacity="0.2" x="1" y="41" width="8" height="8" fill="black" fill-opacity="0.25"/>
<rect opacity="0.2" x="1" y="51" width="8" height="8" fill="black" fill-opacity="0.25"/>
<rect opacity="0.2" x="1" y="61" width="8" height="8" fill="black" fill-opacity="0.25"/>
<rect opacity="0.2" x="1" y="71" width="8" height="8" fill="black" fill-opacity="0.25"/>
<rect opacity="0.2" x="1" y="81" width="8" height="8" fill="black" fill-opacity="0.25"/>
<rect opacity="0.2" x="1" y="91" width="8" height="8" fill="black" fill-opacity="0.25"/>
<rect opacity="0.2" x="11" y="1" width="8" height="8" fill="black" fill-opacity="0.25"/>
<rect opacity="0.2" x="11" y="11" width="8" height="8" fill="black" fill-opacity="0.25"/>
<rect opacity="0.2" x="11" y="21" width="8" height="8" fill="black" fill-opacity="0.25"/>
<rect opacity="0.2" x="11" y="31" width="8" height="8" fill="black" fill-opacity="0.25"/>
<rect opacity="0.2" x="11" y="41" width="8" height="8" fill="black" fill-opacity="0.25"/>
<rect opacity="0.2" x="11" y="51" width="8" height="8" fill="black" fill-opacity="0.25"/>
<rect opacity="0.2" x="11" y="61" width="8" height="8" fill="black" fill-opacity="0.25"/>
<rect opacity="0.2" x="11" y="71" width="8" height="8" fill="black" fill-opacity="0.25"/>
<rect opacity="0.2" x="11" y="81" width="8" height="8" fill="black" fill-opacity="0.25"/>
<rect opacity="0.2" x="11" y="91" width="8" height="8" fill="black" fill-opacity="0.25"/>
<rect opacity="0.2" x="21" y="1" width="8" height="8" fill="black" fill-opacity="0.25"/>
<rect opacity="0.2" x="21" y="11" width="8" height="8" fill="black" fill-opacity="0.25"/>
<rect opacity="0.2" x="21" y="21" width="8" height="8" fill="black" fill-opacity="0.25"/>
<rect opacity="0.2" x="21" y="31" width="8" height="8" fill="black" fill-opacity="0.25"/>
<rect opacity="0.2" x="21" y="41" width="8" height="8" fill="black" fill-opacity="0.25"/>
<rect opacity="0.2" x="21" y="51" width="8" height="8" fill="black" fill-opacity="0.25"/>
<rect opacity="0.2" x="21" y="61" width="8" height="8" fill="black" fill-opacity="0.25"/>
<rect opacity="0.2" x="21" y="71" width="8" height="8" fill="black" fill-opacity="0.25"/>
<rect opacity="0.2" x="21" y="81" width="8" height="8" fill="black" fill-opacity="0.25"/>
<rect opacity="0.2" x="21" y="91" width="8" height="8" fill="black" fill-opacity="0.25"/>
<rect opacity="0.2" x="31" y="1" width="8" height="8" fill="black" fill-opacity="0.25"/>
<rect opacity="0.2" x="31" y="11" width="8" height="8" fill="black" fill-opacity="0.25"/>
<rect opacity="0.2" x="31" y="21" width="8" height="8" fill="black" fill-opacity="0.25"/>
<rect opacity="0.2" x="31" y="31" width="8" height="8" fill="black" fill-opacity="0.25"/>
<rect opacity="0.2" x="31" y="41" width="8" height="8" fill="black" fill-opacity="0.25"/>
<rect opacity="0.2" x="31" y="51" width="8" height="8" fill="black" fill-opacity="0.25"/>
<rect opacity="0.2" x="31" y="61" width="8" height="8" fill="black" fill-opacity="0.25"/>
<rect opacity="0.2" x="31" y="71" width="8" height="8" fill="black" fill-opacity="0.25"/>
<rect opacity="0.2" x="31" y="81" width="8" height="8" fill="black" fill-opacity="0.25"/>
<rect opacity="0.2" x="31" y="91" width="8" height="8" fill="black" fill-opacity="0.25"/>
<rect opacity="0.2" x="41" y="1" width="8" height="8" fill="black" fill-opacity="0.25"/>
<rect opacity="0.2" x="41" y="11" width="8" height="8" fill="black" fill-opacity="0.25"/>
<rect opacity="0.2" x="41" y="21" width="8" height="8" fill="black" fill-opacity="0.25"/>
<rect opacity="0.2" x="41" y="31" width="8" height="8" fill="black" fill-opacity="0.25"/>
<rect opacity="0.2" x="41" y="41" width="8" height="8" fill="black" fill-opacity="0.25"/>
<rect opacity="0.2" x="41" y="51" width="8" height="8" fill="black" fill-opacity="0.25"/>
<rect opacity="0.2" x="41" y="61" width="8" height="8" fill="black" fill-opacity="0.25"/>
<rect opacity="0.2" x="41" y="71" width="8" height="8" fill="black" fill-opacity="0.25"/>
<rect opacity="0.2" x="41" y="81" width="8" height="8" fill="black" fill-opacity="0.25"/>
<rect opacity="0.2" x="41" y="91" width="8" height="8" fill="black" fill-opacity="0.25"/>
<rect opacity="0.2" x="51" y="1" width="8" height="8" fill="black" fill-opacity="0.25"/>
<rect opacity="0.2" x="51" y="11" width="8" height="8" fill="black" fill-opacity="0.25"/>
<rect opacity="0.2" x="51" y="21" width="8" height="8" fill="black" fill-opacity="0.25"/>
<rect opacity="0.2" x="51" y="31" width="8" height="8" fill="black" fill-opacity="0.25"/>
<rect opacity="0.2" x="51" y="41" width="8" height="8" fill="black" fill-opacity="0.25"/>
<rect opacity="0.2" x="51" y="51" width="8" height="8" fill="black" fill-opacity="0.25"/>
<rect opacity="0.2" x="51" y="61" width="8" height="8" fill="black" fill-opacity="0.25"/>
<rect opacity="0.2" x="51" y="71" width="8" height="8" fill="black" fill-opacity="0.25"/>
<rect opacity="0.2" x="51" y="81" width="8" height="8" fill="black" fill-opacity="0.25"/>
<rect opacity="0.2" x="51" y="91" width="8" height="8" fill="black" fill-opacity="0.25"/>
<rect opacity="0.2" x="61" y="1" width="8" height="8" fill="black" fill-opacity="0.25"/>
<rect opacity="0.2" x="61" y="11" width="8" height="8" fill="black" fill-opacity="0.25"/>
<rect opacity="0.2" x="61" y="21" width="8" height="8" fill="black" fill-opacity="0.25"/>
<rect opacity="0.2" x="61" y="31" width="8" height="8" fill="black" fill-opacity="0.25"/>
<rect opacity="0.2" x="61" y="41" width="8" height="8" fill="black" fill-opacity="0.25"/>
<rect opacity="0.2" x="61" y="51" width="8" height="8" fill="black" fill-opacity="0.25"/>
<rect opacity="0.2" x="61" y="61" width="8" height="8" fill="black" fill-opacity="0.25"/>
<rect opacity="0.2" x="61" y="71" width="8" height="8" fill="black" fill-opacity="0.25"/>
<rect opacity="0.2" x="61" y="81" width="8" height="8" fill="black" fill-opacity="0.25"/>
<rect opacity="0.2" x="61" y="91" width="8" height="8" fill="black" fill-opacity="0.25"/>
<rect opacity="0.2" x="71" y="1" width="8" height="8" fill="black" fill-opacity="0.25"/>
<rect opacity="0.2" x="71" y="11" width="8" height="8" fill="black" fill-opacity="0.25"/>
<rect opacity="0.2" x="71" y="21" width="8" height="8" fill="black" fill-opacity="0.25"/>
<rect opacity="0.2" x="71" y="31" width="8" height="8" fill="black" fill-opacity="0.25"/>
<rect opacity="0.2" x="71" y="41" width="8" height="8" fill="black" fill-opacity="0.25"/>
<rect opacity="0.2" x="71" y="51" width="8" height="8" fill="black" fill-opacity="0.25"/>
<rect opacity="0.2" x="71" y="61" width="8" height="8" fill="black" fill-opacity="0.25"/>
<rect opacity="0.2" x="71" y="71" width="8" height="8" fill="black" fill-opacity="0.25"/>
<rect opacity="0.2" x="71" y="81" width="8" height="8" fill="black" fill-opacity="0.25"/>
<rect opacity="0.2" x="71" y="91" width="8" height="8" fill="black" fill-opacity="0.25"/>
<rect opacity="0.2" x="81" y="1" width="8" height="8" fill="black" fill-opacity="0.25"/>
<rect opacity="0.2" x="81" y="11" width="8" height="8" fill="black" fill-opacity="0.25"/>
<rect opacity="0.2" x="81" y="21" width="8" height="8" fill="black" fill-opacity="0.25"/>
<rect opacity="0.2" x="81" y="31" width="8" height="8" fill="black" fill-opacity="0.25"/>
<rect opacity="0.2" x="81" y="41" width="8" height="8" fill="black" fill-opacity="0.25"/>
<rect opacity="0.2" x="81" y="51" width="8" height="8" fill="black" fill-opacity="0.25"/>
<rect opacity="0.2" x="81" y="61" width="8" height="8" fill="black" fill-opacity="0.25"/>
<rect opacity="0.2" x="81" y="71" width="8" height="8" fill="black" fill-opacity="0.25"/>
<rect opacity="0.2" x="81" y="81" width="8" height="8" fill="black" fill-opacity="0.25"/>
<rect opacity="0.2" x="81" y="91" width="8" height="8" fill="black" fill-opacity="0.25"/>
<rect opacity="0.2" x="91" y="1" width="8" height="8" fill="black" fill-opacity="0.25"/>
<rect opacity="0.2" x="91" y="11" width="8" height="8" fill="black" fill-opacity="0.25"/>
<rect opacity="0.2" x="91" y="21" width="8" height="8" fill="black" fill-opacity="0.25"/>
<rect opacity="0.2" x="91" y="31" width="8" height="8" fill="black" fill-opacity="0.25"/>
<rect opacity="0.2" x="91" y="41" width="8" height="8" fill="black" fill-opacity="0.25"/>
<rect opacity="0.2" x="91" y="51" width="8" height="8" fill="black" fill-opacity="0.25"/>
<rect opacity="0.2" x="91" y="61" width="8" height="8" fill="black" fill-opacity="0.25"/>
<rect opacity="0.2" x="91" y="71" width="8" height="8" fill="black" fill-opacity="0.25"/>
<rect opacity="0.2" x="91" y="81" width="8" height="8" fill="black" fill-opacity="0.25"/>
<rect opacity="0.2" x="91" y="91" width="8" height="8" fill="black" fill-opacity="0.25"/>
<rect opacity="0.2" x="101" y="1" width="8" height="8" fill="black" fill-opacity="0.25"/>
<rect opacity="0.2" x="101" y="11" width="8" height="8" fill="black" fill-opacity="0.25"/>
<rect opacity="0.2" x="101" y="21" width="8" height="8" fill="black" fill-opacity="0.25"/>
<rect opacity="0.2" x="101" y="31" width="8" height="8" fill="black" fill-opacity="0.25"/>
<rect opacity="0.2" x="101" y="41" width="8" height="8" fill="black" fill-opacity="0.25"/>
<rect opacity="0.2" x="101" y="51" width="8" height="8" fill="black" fill-opacity="0.25"/>
<rect opacity="0.2" x="101" y="61" width="8" height="8" fill="black" fill-opacity="0.25"/>
<rect opacity="0.2" x="101" y="71" width="8" height="8" fill="black" fill-opacity="0.25"/>
<rect opacity="0.2" x="101" y="81" width="8" height="8" fill="black" fill-opacity="0.25"/>
<rect opacity="0.2" x="101" y="91" width="8" height="8" fill="black" fill-opacity="0.25"/>
<rect opacity="0.2" x="111" y="1" width="8" height="8" fill="black" fill-opacity="0.25"/>
<rect opacity="0.2" x="111" y="11" width="8" height="8" fill="black" fill-opacity="0.25"/>
<rect opacity="0.2" x="111" y="21" width="8" height="8" fill="black" fill-opacity="0.25"/>
<rect opacity="0.2" x="111" y="31" width="8" height="8" fill="black" fill-opacity="0.25"/>
<rect opacity="0.2" x="111" y="41" width="8" height="8" fill="black" fill-opacity="0.25"/>
<rect opacity="0.2" x="111" y="51" width="8" height="8" fill="black" fill-opacity="0.25"/>
<rect opacity="0.2" x="111" y="61" width="8" height="8" fill="black" fill-opacity="0.25"/>
<rect opacity="0.2" x="111" y="71" width="8" height="8" fill="black" fill-opacity="0.25"/>
<rect opacity="0.2" x="111" y="81" width="8" height="8" fill="black" fill-opacity="0.25"/>
<rect opacity="0.2" x="111" y="91" width="8" height="8" fill="black" fill-opacity="0.25"/>
<rect opacity="0.2" x="121" y="1" width="8" height="8" fill="black" fill-opacity="0.25"/>
<rect opacity="0.2" x="121" y="11" width="8" height="8" fill="black" fill-opacity="0.25"/>
<rect opacity="0.2" x="121" y="21" width="8" height="8" fill="black" fill-opacity="0.25"/>
<rect opacity="0.2" x="121" y="31" width="8" height="8" fill="black" fill-opacity="0.25"/>
<rect opacity="0.2" x="121" y="41" width="8" height="8" fill="black" fill-opacity="0.25"/>
<rect opacity="0.2" x="121" y="51" width="8" height="8" fill="black" fill-opacity="0.25"/>
<rect opacity="0.2" x="121" y="61" width="8" height="8" fill="black" fill-opacity="0.25"/>
<rect opacity="0.2" x="121" y="71" width="8" height="8" fill="black" fill-opacity="0.25"/>
<rect opacity="0.2" x="121" y="81" width="8" height="8" fill="black" fill-opacity="0.25"/>
<rect opacity="0.2" x="121" y="91" width="8" height="8" fill="black" fill-opacity="0.25"/>
<rect opacity="0.2" x="131" y="1" width="8" height="8" fill="black" fill-opacity="0.25"/>
<rect opacity="0.2" x="131" y="11" width="8" height="8" fill="black" fill-opacity="0.25"/>
<rect opacity="0.2" x="131" y="21" width="8" height="8" fill="black" fill-opacity="0.25"/>
<rect opacity="0.2" x="131" y="31" width="8" height="8" fill="black" fill-opacity="0.25"/>
<rect opacity="0.2" x="131" y="41" width="8" height="8" fill="black" fill-opacity="0.25"/>
<rect opacity="0.2" x="131" y="51" width="8" height="8" fill="black" fill-opacity="0.25"/>
<rect opacity="0.2" x="131" y="61" width="8" height="8" fill="black" fill-opacity="0.25"/>
<rect opacity="0.2" x="131" y="71" width="8" height="8" fill="black" fill-opacity="0.25"/>
<rect opacity="0.2" x="131" y="81" width="8" height="8" fill="black" fill-opacity="0.25"/>
<rect opacity="0.2" x="131" y="91" width="8" height="8" fill="black" fill-opacity="0.25"/>
<rect opacity="0.2" x="141" y="1" width="8" height="8" fill="black" fill-opacity="0.25"/>
<rect opacity="0.2" x="141" y="11" width="8" height="8" fill="black" fill-opacity="0.25"/>
<rect opacity="0.2" x="141" y="21" width="8" height="8" fill="black" fill-opacity="0.25"/>
<rect opacity="0.2" x="141" y="31" width="8" height="8" fill="black" fill-opacity="0.25"/>
<rect opacity="0.2" x="141" y="41" width="8" height="8" fill="black" fill-opacity="0.25"/>
<rect opacity="0.2" x="141" y="51" width="8" height="8" fill="black" fill-opacity="0.25"/>
<rect opacity="0.2" x="141" y="61" width="8" height="8" fill="black" fill-opacity="0.25"/>
<rect opacity="0.2" x="141" y="71" width="8" height="8" fill="black" fill-opacity="0.25"/>
<rect opacity="0.2" x="141" y="81" width="8" height="8" fill="black" fill-opacity="0.25"/>
<rect opacity="0.2" x="141" y="91" width="8" height="8" fill="black" fill-opacity="0.25"/>
<rect opacity="0.2" x="151" y="1" width="8" height="8" fill="black" fill-opacity="0.25"/>
<rect opacity="0.2" x="151" y="11" width="8" height="8" fill="black" fill-opacity="0.25"/>
<rect opacity="0.2" x="151" y="21" width="8" height="8" fill="black" fill-opacity="0.25"/>
<rect opacity="0.2" x="151" y="31" width="8" height="8" fill="black" fill-opacity="0.25"/>
<rect opacity="0.2" x="151" y="41" width="8" height="8" fill="black" fill-opacity="0.25"/>
<rect opacity="0.2" x="151" y="51" width="8" height="8" fill="black" fill-opacity="0.25"/>
<rect opacity="0.2" x="151" y="61" width="8" height="8" fill="black" fill-opacity="0.25"/>
<rect opacity="0.2" x="151" y="71" width="8" height="8" fill="black" fill-opacity="0.25"/>
<rect opacity="0.2" x="151" y="81" width="8" height="8" fill="black" fill-opacity="0.25"/>
<rect opacity="0.2" x="151" y="91" width="8" height="8" fill="black" fill-opacity="0.25"/>
<rect opacity="0.2" x="161" y="1" width="8" height="8" fill="black" fill-opacity="0.25"/>
<rect opacity="0.2" x="161" y="11" width="8" height="8" fill="black" fill-opacity="0.25"/>
<rect opacity="0.2" x="161" y="21" width="8" height="8" fill="black" fill-opacity="0.25"/>
<rect opacity="0.2" x="161" y="31" width="8" height="8" fill="black" fill-opacity="0.25"/>
<rect opacity="0.2" x="161" y="41" width="8" height="8" fill="black" fill-opacity="0.25"/>
<rect opacity="0.2" x="161" y="51" width="8" height="8" fill="black" fill-opacity="0.25"/>
<rect opacity="0.2" x="161" y="61" width="8" height="8" fill="black" fill-opacity="0.25"/>
<rect opacity="0.2" x="161" y="71" width="8" height="8" fill="black" fill-opacity="0.25"/>
<rect opacity="0.2" x="161" y="81" width="8" height="8" fill="black" fill-opacity="0.25"/>
<rect opacity="0.2" x="161" y="91" width="8" height="8" fill="black" fill-opacity="0.25"/>
<rect opacity="0.2" x="171" y="1" width="8" height="8" fill="black" fill-opacity="0.25"/>
<rect opacity="0.2" x="171" y="11" width="8" height="8" fill="black" fill-opacity="0.25"/>
<rect opacity="0.2" x="171" y="21" width="8" height="8" fill="black" fill-opacity="0.25"/>
<rect opacity="0.2" x="171" y="31" width="8" height="8" fill="black" fill-opacity="0.25"/>
<rect opacity="0.2" x="171" y="41" width="8" height="8" fill="black" fill-opacity="0.25"/>
<rect opacity="0.2" x="171" y="51" width="8" height="8" fill="black" fill-opacity="0.25"/>
<rect opacity="0.2" x="171" y="61" width="8" height="8" fill="black" fill-opacity="0.25"/>
<rect opacity="0.2" x="171" y="71" width="8" height="8" fill="black" fill-opacity="0.25"/>
<rect opacity="0.2" x="171" y="81" width="8" height="8" fill="black" fill-opacity="0.25"/>
<rect opacity="0.2" x="171" y="91" width="8" height="8" fill="black" fill-opacity="0.25"/>
<rect opacity="0.2" x="181" y="1" width="8" height="8" fill="black" fill-opacity="0.25"/>
<rect opacity="0.2" x="181" y="11" width="8" height="8" fill="black" fill-opacity="0.25"/>
<rect opacity="0.2" x="181" y="21" width="8" height="8" fill="black" fill-opacity="0.25"/>
<rect opacity="0.2" x="181" y="31" width="8" height="8" fill="black" fill-opacity="0.25"/>
<rect opacity="0.2" x="181" y="41" width="8" height="8" fill="black" fill-opacity="0.25"/>
<rect opacity="0.2" x="181" y="51" width="8" height="8" fill="black" fill-opacity="0.25"/>
<rect opacity="0.2" x="181" y="61" width="8" height="8" fill="black" fill-opacity="0.25"/>
<rect opacity="0.2" x="181" y="71" width="8" height="8" fill="black" fill-opacity="0.25"/>
<rect opacity="0.2" x="181" y="81" width="8" height="8" fill="black" fill-opacity="0.25"/>
<rect opacity="0.2" x="181" y="91" width="8" height="8" fill="black" fill-opacity="0.25"/>
<rect opacity="0.2" x="191" y="1" width="8" height="8" fill="black" fill-opacity="0.25"/>
<rect opacity="0.2" x="191" y="11" width="8" height="8" fill="black" fill-opacity="0.25"/>
<rect opacity="0.2" x="191" y="21" width="8" height="8" fill="black" fill-opacity="0.25"/>
<rect opacity="0.2" x="191" y="31" width="8" height="8" fill="black" fill-opacity="0.25"/>
<rect opacity="0.2" x="191" y="41" width="8" height="8" fill="black" fill-opacity="0.25"/>
<rect opacity="0.2" x="191" y="51" width="8" height="8" fill="black" fill-opacity="0.25"/>
<rect opacity="0.2" x="191" y="61" width="8" height="8" fill="black" fill-opacity="0.25"/>
<rect opacity="0.2" x="191" y="71" width="8" height="8" fill="black" fill-opacity="0.25"/>
<rect opacity="0.2" x="191" y="81" width="8" height="8" fill="black" fill-opacity="0.25"/>
<rect opacity="0.2" x="191" y="91" width="8" height="8" fill="black" fill-opacity="0.25"/>
<rect opacity="0.2" x="201" y="1" width="8" height="8" fill="black" fill-opacity="0.25"/>
<rect opacity="0.2" x="201" y="11" width="8" height="8" fill="black" fill-opacity="0.25"/>
<rect opacity="0.2" x="201" y="21" width="8" height="8" fill="black" fill-opacity="0.25"/>
<rect opacity="0.2" x="201" y="31" width="8" height="8" fill="black" fill-opacity="0.25"/>
<rect opacity="0.2" x="201" y="41" width="8" height="8" fill="black" fill-opacity="0.25"/>
<rect opacity="0.2" x="201" y="51" width="8" height="8" fill="black" fill-opacity="0.25"/>
<rect opacity="0.2" x="201" y="61" width="8" height="8" fill="black" fill-opacity="0.25"/>
<rect opacity="0.2" x="201" y="71" width="8" height="8" fill="black" fill-opacity="0.25"/>
<rect opacity="0.2" x="201" y="81" width="8" height="8" fill="black" fill-opacity="0.25"/>
<rect opacity="0.2" x="201" y="91" width="8" height="8" fill="black" fill-opacity="0.25"/>
</svg>
