<svg width="100" height="87" viewBox="0 0 100 87" fill="none" xmlns="http://www.w3.org/2000/svg">
<path d="M25 86.1702H75L100 43.0851L75 0H25L0 43.0851L25 86.1702Z" fill="#0079A8"/>
<path d="M67.2739 66.2842H32.0128V21.0047H44.0817V19.7158H56.1423L56.996 21.0047H67.2739V66.2842Z" fill="white"/>
<path d="M39.6709 46.1053C39.4533 46.1053 39.2357 46.0216 39.0683 45.8542C38.7335 45.5194 38.7335 44.9754 39.0683 44.6406L42.9685 40.7403C43.3033 40.4056 43.8473 40.4056 44.1821 40.7403C44.5169 41.0751 44.5169 41.6192 44.1821 41.9539L40.2819 45.8542C40.1145 46.0216 39.8969 46.1053 39.6793 46.1053H39.6709Z" fill="#192232"/>
<path d="M43.772 46.0467C43.5627 46.0467 43.3535 45.9713 43.1861 45.8123L39.1687 42.0376C38.8256 41.7112 38.8088 41.1672 39.1269 40.824C39.4449 40.4809 39.9973 40.4642 40.3405 40.7822L44.3579 44.5569C44.701 44.8833 44.7178 45.4273 44.3997 45.7705C44.2323 45.9462 44.0063 46.0383 43.772 46.0383V46.0467Z" fill="#192232"/>
<path d="M44.6508 35.5594C44.4332 35.5594 44.2156 35.4757 44.0482 35.3083C43.7134 34.9735 43.7134 34.4295 44.0482 34.0947L47.9484 30.1944C48.2832 29.8597 48.8272 29.8597 49.162 30.1944C49.4968 30.5292 49.4968 31.0733 49.162 31.408L45.2618 35.3083C45.0944 35.4757 44.8768 35.5594 44.6592 35.5594H44.6508Z" fill="#192232"/>
<path d="M48.6598 35.593C48.4338 35.593 48.2079 35.5009 48.0405 35.3335L44.2072 31.3663C43.8808 31.0232 43.8892 30.4792 44.2323 30.1528C44.5755 29.8263 45.1195 29.8347 45.4459 30.1779L49.2792 34.145C49.6056 34.4882 49.5972 35.0322 49.2541 35.3586C49.0867 35.5177 48.8691 35.6014 48.6598 35.6014V35.593Z" fill="#192232"/>
<path d="M57.063 61.3128C56.8454 61.3128 56.6278 61.2291 56.4604 61.0617C56.1256 60.7269 56.1256 60.1829 56.4604 59.8481L60.3606 55.9479C60.6954 55.6131 61.2394 55.6131 61.5742 55.9479C61.909 56.2826 61.909 56.8267 61.5742 57.1615L57.674 61.0617C57.5066 61.2291 57.289 61.3128 57.0714 61.3128H57.063Z" fill="#192232"/>
<path d="M61.1724 61.254C60.9632 61.254 60.754 61.1787 60.5866 61.0197L56.5692 57.2449C56.226 56.9185 56.2093 56.3745 56.5273 56.0313C56.8537 55.6882 57.3978 55.6714 57.7409 55.9895L61.7583 59.7642C62.1015 60.0907 62.1182 60.6347 61.8002 60.9778C61.6328 61.1536 61.4068 61.2456 61.1724 61.2456V61.254Z" fill="#192232"/>
<path d="M41.914 58.6928C40.081 58.6928 38.5912 57.203 38.5912 55.3701C38.5912 53.5371 40.081 52.0474 41.914 52.0474C43.7469 52.0474 45.2367 53.5371 45.2367 55.3701C45.2367 57.203 43.7469 58.6928 41.914 58.6928ZM41.914 53.7631C41.0268 53.7631 40.307 54.4829 40.307 55.3701C40.307 56.2573 41.0268 56.9771 41.914 56.9771C42.8012 56.9771 43.5209 56.2573 43.5209 55.3701C43.5209 54.4829 42.8012 53.7631 41.914 53.7631Z" fill="#192232"/>
<path d="M44.9605 56.2071C44.5002 56.2071 44.1152 55.8389 44.1068 55.3702C44.0985 54.8931 44.4667 54.5081 44.9438 54.4914C46.3917 54.4579 47.7225 54.1649 48.911 53.6209C53.0288 51.7294 55.7238 46.7997 56.9123 38.9741C57.0881 37.8359 57.1885 36.6892 57.222 35.551C57.2387 35.0739 57.6405 34.6973 58.1008 34.7224C58.5779 34.7391 58.9461 35.1325 58.9294 35.6012C58.8959 36.8064 58.7787 38.0284 58.603 39.2336C57.3224 47.6618 54.301 53.0267 49.6224 55.1777C48.2247 55.8221 46.6596 56.1653 44.9773 56.2071H44.9605Z" fill="#192232"/>
<path d="M65.8175 68.0001H34.1637C32.4145 68.0001 31 66.5772 31 64.8364V23.3148C31 21.5656 32.4228 20.1511 34.1637 20.1511H43.2196V21.8669H34.1637C33.3602 21.8669 32.7158 22.5197 32.7158 23.3148V64.8364C32.7158 65.6399 33.3686 66.2843 34.1637 66.2843H65.8175C66.621 66.2843 67.2655 65.6315 67.2655 64.8364V23.3148C67.2655 22.5113 66.6126 21.8669 65.8175 21.8669H56.9876V20.1511H65.8175C67.5668 20.1511 68.9812 21.574 68.9812 23.3148V64.8364C68.9812 66.5856 67.5584 68.0001 65.8175 68.0001Z" fill="#192232"/>
<path d="M56.318 24.0763H43.8892C43.0439 24.0763 42.3575 23.39 42.3575 22.5447V21.0046H44.0733V22.3605H56.1339V21.0046H57.8497V22.5447C57.8497 23.39 57.1634 24.0763 56.318 24.0763Z" fill="#192232"/>
<path d="M57.8497 21.0047H56.1339V19.7158H44.0733V21.0047H42.3575V19.5316C42.3575 18.6863 43.0439 18 43.8892 18H56.318C57.1634 18 57.8497 18.6863 57.8497 19.5316V21.0047Z" fill="#192232"/>
<path d="M60.8125 37.7691C60.5866 37.7691 60.369 37.6854 60.2016 37.5097L58.151 35.4173L55.5983 37.2753C55.2133 37.5515 54.6776 37.4678 54.4014 37.0912C54.1252 36.7062 54.2089 36.1705 54.5856 35.8943L58.3351 33.1575L61.4235 36.3128C61.7583 36.6476 61.7499 37.1916 61.4068 37.5264C61.2394 37.6938 61.0218 37.7691 60.8042 37.7691H60.8125Z" fill="#192232"/>
</svg>
